<?xml version="1.0" encoding="utf-8"?>
<!-- Generator: Adobe Illustrator 25.0.0, SVG Export Plug-In . SVG Version: 6.00 Build 0)  -->
<svg version="1.1" id="图层_1" xmlns="http://www.w3.org/2000/svg" xmlns:xlink="http://www.w3.org/1999/xlink" x="0px" y="0px"
	 viewBox="0 0 16 16" style="enable-background:new 0 0 16 16;" xml:space="preserve">
<style type="text/css">
	.st0{fill:#510C0C;}
	.st1{fill:url(#SVGID_1_);}
	.st2{fill:#FFFFFF;}
</style>
<path class="st0" d="M10.14812,5.51843c-0.01484,0-0.02984-0.00266-0.04453-0.00828
	c-0.06453-0.02469-0.09672-0.09688-0.07219-0.16141c0.10281-0.26906,0.155-0.55297,0.155-0.84375
	c0-1.30375-1.06078-2.36453-2.36453-2.36453c-0.565,0-1.11172,0.2025-1.53969,0.57C5.85875,3.07421,5.57672,3.57624,5.48797,4.12406
	C5.47688,4.1922,5.41269,4.23849,5.34453,4.22749C5.27638,4.21641,5.23009,4.15222,5.24109,4.08406
	c0.09812-0.60594,0.41-1.16109,0.87813-1.56328C6.5925,2.11421,7.19719,1.89046,7.82188,1.89046
	c1.44156,0,2.61453,1.17281,2.61453,2.61453c0,0.32141-0.05766,0.63531-0.17141,0.93297
	c-0.01846,0.04843-0.06489,0.08044-0.11672,0.08047H10.14812z"/>
<path class="st0" d="M12.00562,6.72984c-0.00672,0-0.01359-0.00047-0.02047-0.00172
	c-0.0681-0.01123-0.11424-0.07548-0.10312-0.14359c0.01516-0.09219,0.02281-0.18672,0.02281-0.28094
	c0-0.90141-0.70375-1.65422-1.60203-1.71391c-0.06891-0.00453-0.12094-0.06406-0.11641-0.13297s0.06406-0.12094,0.13297-0.11641
	c1.02922,0.06844,1.83547,0.93078,1.83547,1.96344c0,0.10781-0.00875,0.21594-0.02609,0.32156
	c-0.01,0.06125-0.06312,0.10469-0.12313,0.10469L12.00562,6.72984z"/>
<linearGradient id="SVGID_1_" gradientUnits="userSpaceOnUse" x1="7.99023" y1="13.98085" x2="7.99023" y2="6.74914">
	<stop  offset="0" style="stop-color:#63BAFD"/>
	<stop  offset="1" style="stop-color:#BDE2FF"/>
</linearGradient>
<path class="st1" d="M9.95578,14.09374H6.01219c-0.35906,0-0.66422-0.26281-0.71719-0.61797L4.69156,9.43546h6.58484
	l-0.60344,4.04031C10.62,13.83093,10.31484,14.09374,9.95578,14.09374z M11.59344,9.63937H4.38703
	c-0.23547,0-0.43719-0.16828-0.47922-0.4L3.53312,7.17859C3.47875,6.87952,3.70844,6.60437,4.01234,6.60437h7.95578
	c0.30391,0,0.53359,0.27516,0.47922,0.57422l-0.37469,2.06078C12.03047,9.47093,11.82891,9.63937,11.59344,9.63937z"/>
<path class="st0" d="M9.95578,14.21874H6.01219c-0.20359,0-0.40078-0.06955-0.555-0.1956
	c-0.15429-0.12623-0.2557-0.30083-0.28578-0.49203L4.54656,9.56046h6.87484l-0.62484,3.97065
	c-0.03015,0.19118-0.13155,0.36576-0.28578,0.49203C10.35644,14.14934,10.1595,14.21875,9.95578,14.21874z M4.83656,9.79773
	l0.58203,3.69839c0.04359,0.27671,0.29875,0.48551,0.59359,0.48551h3.94359c0.29484,0,0.55-0.20865,0.59359-0.48551l0.58203-3.69839
	H4.83672H4.83656z"/>
<path class="st0" d="M4.03594,6.6464c-0.05719,0-0.10891-0.03953-0.12188-0.09766C3.87859,6.39077,3.86078,6.22781,3.86078,6.06437
	c0-1.21688,0.99-2.20703,2.20703-2.20703c0.35516,0,0.70828,0.08641,1.02094,0.24984C7.15,4.13921,7.17359,4.21468,7.14156,4.27593
	s-0.1075,0.08484-0.16875,0.05281C6.69562,4.1839,6.38266,4.10734,6.06766,4.10734c-1.07906,0-1.95703,0.87781-1.95703,1.95703
	c0,0.145,0.01594,0.28953,0.04734,0.42969C4.17312,6.5614,4.13062,6.62827,4.06328,6.64343
	c-0.00922,0.00203-0.01844,0.00313-0.0275,0.00313L4.03594,6.6464z"/>
<path class="st0" d="M11.59344,9.76437H4.38703c-0.29594,0-0.54922-0.21141-0.60219-0.50266L3.41016,7.20093
	C3.37766,7.02187,3.42578,6.83906,3.5425,6.69921c0.11619-0.13951,0.28844-0.22008,0.47-0.21984h7.95578
	c0.18203,0,0.35328,0.08016,0.47,0.21984c0.11646,0.13927,0.16496,0.32312,0.13234,0.50172l-0.37469,2.06078
	c-0.05297,0.29125-0.30625,0.50266-0.60219,0.50266H11.59344z M4.01219,6.72952c-0.10766,0-0.20906,0.04734-0.27797,0.13016
	C3.66528,6.94202,3.63659,7.05077,3.65594,7.1564l0.37469,2.06078c0.03125,0.17234,0.18109,0.29734,0.35625,0.29734h7.20641
	c0.17516,0,0.32484-0.125,0.35625-0.29734l0.37469-2.06078c0.01922-0.10594-0.00922-0.21406-0.07828-0.29672
	s-0.17031-0.13016-0.27797-0.13016C11.96797,6.72952,4.01219,6.72952,4.01219,6.72952z M6.02125,13.02843
	c-0.03388,0.00001-0.06631-0.01375-0.08984-0.03813c-0.04797-0.04969-0.04672-0.12875,0.00297-0.17672l2.85641-2.76344
	c0.04969-0.04797,0.12875-0.04672,0.17672,0.00297s0.04672,0.12875-0.00297,0.17672l-2.85641,2.76344
	C6.08484,13.01584,6.05368,13.02845,6.02125,13.02843z M7.45156,13.68484c-0.03388,0.00001-0.06631-0.01375-0.08984-0.03813
	c-0.04797-0.04969-0.04672-0.12875,0.00297-0.17672l2.85641-2.76344c0.04969-0.04797,0.12875-0.04672,0.17672,0.00297
	s0.04672,0.12875-0.00297,0.17672l-2.85641,2.76344C7.51515,13.67225,7.48399,13.68486,7.45156,13.68484z"/>
<path class="st0" d="M8.40922,13.72546c-0.03388,0.00001-0.06631-0.01375-0.08984-0.03813l-2.76344-2.85641
	c-0.04797-0.04969-0.04672-0.12875,0.00297-0.17672s0.12875-0.04672,0.17672,0.00297l2.76344,2.85641
	c0.04797,0.04969,0.04672,0.12875-0.00297,0.17672C8.47281,13.71288,8.44165,13.72549,8.40922,13.72546z M10.04375,13.15124
	c-0.03388,0.00001-0.06631-0.01375-0.08984-0.03813l-2.76344-2.85641c-0.04797-0.04969-0.04672-0.12875,0.00297-0.17672
	s0.12875-0.04672,0.17672,0.00297l2.76344,2.85641c0.04797,0.04969,0.04672,0.12875-0.00297,0.17672
	C10.10734,13.13866,10.07618,13.15127,10.04375,13.15124z"/>
<path class="st2" d="M11.2925,7.47546H4.69875c-0.06906,0-0.125-0.05594-0.125-0.125s0.05594-0.125,0.125-0.125h6.59375
	c0.06906,0,0.125,0.05594,0.125,0.125S11.36156,7.47546,11.2925,7.47546z"/>
</svg>
