<?xml version="1.0" standalone="no"?><!DOCTYPE svg PUBLIC "-//W3C//DTD SVG 1.1//EN" "http://www.w3.org/Graphics/SVG/1.1/DTD/svg11.dtd"><svg t="1759753636494" class="icon" viewBox="0 0 1024 1024" version="1.1" xmlns="http://www.w3.org/2000/svg" p-id="3769" xmlns:xlink="http://www.w3.org/1999/xlink" width="16" height="16"><path d="M362.54 207.8c-98.84 81.33-113.03 227.38-31.7 326.21 81.33 98.84 227.38 113.03 326.21 31.7 98.84-81.33 113.03-227.38 31.7-326.21-81.33-98.84-227.38-113.03-326.21-31.7z m239.83 291.47c-62.14 51.13-153.96 42.21-205.1-19.93-51.13-62.14-42.21-153.96 19.93-205.1 62.14-51.13 153.96-42.21 205.1 19.93 51.13 62.14 42.21 153.96-19.93 205.1z" fill="#FFDEA4" p-id="3770"></path><path d="M510.23 626.54c-7.84 0-15.72-0.38-23.63-1.15-63.74-6.19-121.25-36.84-161.94-86.29s-59.69-111.79-53.49-175.53c6.19-63.74 36.84-121.25 86.29-161.94s111.79-59.69 175.53-53.49c63.74 6.19 121.25 36.84 161.94 86.29s59.69 111.79 53.49 175.53c-6.19 63.74-36.84 121.25-86.29 161.94-43.32 35.64-96.53 54.64-151.9 54.64zM362.54 207.8l5.08 6.18c-46.15 37.98-74.75 91.65-80.53 151.14-5.78 59.49 11.95 117.66 49.92 163.82 37.98 46.15 91.65 74.75 151.14 80.53 7.37 0.72 14.74 1.07 22.05 1.07 51.68 0 101.33-17.73 141.76-51 46.15-37.98 74.75-91.65 80.53-151.14 5.78-59.49-11.95-117.66-49.92-163.81-37.98-46.15-91.65-74.75-151.14-80.53-59.49-5.78-117.66 11.95-163.81 49.92l-5.08-6.18z m147.39 332.6c-44.41 0-88.48-19.09-118.83-55.98-53.85-65.45-44.42-162.5 21.03-216.36 31.7-26.09 71.67-38.26 112.53-34.3 40.86 3.97 77.74 23.62 103.82 55.32 26.09 31.7 38.27 71.67 34.3 112.53-3.97 40.86-23.62 77.74-55.32 103.82-28.56 23.5-63.15 34.95-97.53 34.95z m-0.39-291.36c-31.81 0-62.37 10.91-87.25 31.39-58.63 48.25-67.08 135.2-18.84 193.84 48.25 58.63 135.2 67.09 193.84 18.84 28.4-23.37 46.01-56.41 49.56-93.02 3.56-36.61-7.35-72.42-30.73-100.82-23.37-28.4-56.41-46.01-93.02-49.56-4.54-0.44-9.07-0.66-13.57-0.66z" fill="#510C0C" p-id="3771"></path><path d="M758.48 862.65H261.1c-22.43 0-41.45-16.51-44.61-38.72l-54.72-385.11c-3.85-27.13 17.2-51.39 44.61-51.39H813.2c27.4 0 48.46 24.26 44.61 51.39l-54.72 385.11c-3.16 22.21-22.17 38.72-44.61 38.72z" fill="#D0F1F7" p-id="3772"></path><path d="M317.7 586.55c0.74-1.19 2.01-1.9 3.81-2.15l3.32-0.49c1.47-0.25 2.68-0.06 3.62 0.55 0.94 0.61 1.9 1.7 2.89 3.25 1.97 4.1 5.18 7.17 9.64 9.21 4.46 2.05 9.13 2.58 14 1.6 4.87-0.98 8.74-3.44 11.61-7.37 1.8-2.54 2.74-5.2 2.82-7.98 0.08-2.78-0.7-5.28-2.33-7.49-1.64-2.21-4.01-3.77-7.12-4.67-1.97-0.65-5.77-1.35-11.42-2.09-1.15-0.16-3.89-0.57-8.23-1.23-5.98-1.06-10.79-3.97-14.43-8.72-3.64-4.75-5.45-10.13-5.4-16.15 0.04-6.02 2.11-11.24 6.2-15.66 4.26-4.91 9.66-7.96 16.21-9.15 6.55-1.19 12.96-0.49 19.22 2.09s11.2 6.69 14.8 12.34c1.15 1.56 1.47 2.97 0.98 4.24s-1.6 2.23-3.32 2.89l-2.7 1.11c-1.56 0.74-2.89 0.86-3.99 0.37-1.11-0.49-2.27-1.47-3.5-2.95-2.21-3.03-4.97-5.22-8.29-6.57s-6.71-1.66-10.19-0.92c-3.48 0.74-6.45 2.54-8.9 5.4-2.05 2.21-3.11 4.73-3.19 7.55-0.08 2.83 0.78 5.36 2.58 7.62 1.8 2.25 4.26 3.71 7.37 4.36 1.06 0.25 2.27 0.47 3.62 0.68 1.35 0.21 2.8 0.39 4.36 0.55 5.4 0.57 9.74 1.35 13.02 2.33 6.22 2.05 10.93 5.28 14.12 9.7 3.19 4.42 4.73 9.33 4.61 14.74-0.12 5.4-1.9 10.48-5.34 15.23-4.59 6.55-11.14 10.56-19.65 12.04-8.52 1.47-16.7 0.35-24.56-3.38s-13.31-9.27-16.34-16.64c-0.66-1.64-0.61-3.05 0.12-4.24zM427.07 608.66c-0.94 0.94-2.31 1.41-4.11 1.41h-2.82c-1.72 0-3.05-0.47-3.99-1.41-0.94-0.94-1.41-2.27-1.41-3.99v-80.2c0-1.72 0.47-3.05 1.41-3.99 0.94-0.94 2.27-1.41 3.99-1.41h2.82c1.8 0 3.17 0.47 4.11 1.41 0.94 0.94 1.41 2.27 1.41 3.99v80.2c0 1.72-0.47 3.05-1.41 3.99z m51.89-39.12h-57.11v-13.26h57.11v13.26z m5.35 39.12c-0.94 0.94-2.27 1.41-3.99 1.41h-2.95c-1.72 0-3.05-0.47-3.99-1.41-0.94-0.94-1.41-2.27-1.41-3.99v-80.2c0-1.72 0.47-3.05 1.41-3.99 0.94-0.94 2.27-1.41 3.99-1.41h2.95c1.72 0 3.05 0.47 3.99 1.41 0.94 0.94 1.41 2.27 1.41 3.99v80.2c0 1.72-0.47 3.05-1.41 3.99zM541.3 605.16c-7.17-4.18-12.86-9.83-17.07-16.95-4.22-7.12-6.33-14.94-6.33-23.46s2.11-16.38 6.33-23.58c4.22-7.2 9.93-12.92 17.13-17.13 7.2-4.22 15.02-6.33 23.46-6.33s16.25 2.11 23.46 6.33c7.2 4.22 12.92 9.93 17.13 17.13 4.22 7.21 6.33 15.07 6.33 23.58s-2.11 16.34-6.33 23.46c-4.22 7.12-9.91 12.77-17.07 16.95-7.17 4.18-15.01 6.26-23.52 6.26s-16.36-2.09-23.52-6.26z m40.47-11.05c4.99-2.87 8.88-6.86 11.67-11.98 2.78-5.12 4.18-10.91 4.18-17.38s-1.39-12.28-4.18-17.44c-2.78-5.16-6.69-9.21-11.73-12.16-5.04-2.95-10.67-4.42-16.89-4.42s-11.85 1.47-16.89 4.42c-5.04 2.95-8.95 7-11.73 12.16-2.78 5.16-4.18 10.97-4.18 17.44s1.39 12.26 4.18 17.38c2.78 5.12 6.67 9.11 11.67 11.98 4.99 2.87 10.64 4.3 16.95 4.3s11.95-1.43 16.95-4.3zM656.26 608.66c-0.94 0.94-2.31 1.41-4.11 1.41h-2.82c-1.72 0-3.05-0.47-3.99-1.41-0.94-0.94-1.41-2.27-1.41-3.99v-76.76c0-2.87 0.74-5.06 2.21-6.57 1.47-1.51 3.64-2.27 6.51-2.27h5.04v85.61c0 1.72-0.47 3.05-1.41 3.99z m-1.66-48.57h19.16c3.11 0 5.81-0.61 8.11-1.84 2.29-1.23 4.05-2.91 5.28-5.04 1.23-2.13 1.84-4.5 1.84-7.12s-0.61-4.85-1.84-6.94c-1.23-2.09-2.99-3.73-5.28-4.91-2.29-1.19-5-1.78-8.11-1.78h-18.67v-13.39h18.67c5.4 0 10.34 1.29 14.8 3.87 4.46 2.58 7.94 5.96 10.44 10.13 2.5 4.18 3.75 8.52 3.75 13.02s-1.25 8.86-3.75 13.08c-2.5 4.22-5.98 7.66-10.44 10.32-4.46 2.66-9.4 3.99-14.8 3.99H654.6v-13.39z" fill="#510C0C" p-id="3773"></path><path d="M794.18 827.23H225.4c-4.42 0-8-3.58-8-8s3.58-8 8-8h568.79c4.42 0 8 3.58 8 8s-3.58 8-8 8zM854.18 443.23H165.4c-4.42 0-8-3.58-8-8s3.58-8 8-8h688.79c4.42 0 8 3.58 8 8s-3.58 8-8 8z" fill="#FFFFFF" p-id="3774"></path><path d="M758.48 870.65H261.1c-26.25 0-48.83-19.6-52.53-45.59l-54.72-385.11a53.053 53.053 0 0 1 12.46-42.24 53.022 53.022 0 0 1 40.07-18.28H813.2c15.38 0 29.99 6.66 40.07 18.28a53.053 53.053 0 0 1 12.46 42.24l-54.72 385.11c-3.69 25.99-26.27 45.59-52.53 45.59z m-552.1-475.21a37.01 37.01 0 0 0-27.98 12.77 37.046 37.046 0 0 0-8.7 29.5l54.72 385.11c2.58 18.15 18.35 31.84 36.69 31.84h497.38c18.34 0 34.11-13.69 36.69-31.84l54.72-385.11a37.035 37.035 0 0 0-8.7-29.5 37.044 37.044 0 0 0-27.98-12.77H206.38z" fill="#510C0C" p-id="3775"></path></svg>
