<?xml version="1.0" encoding="utf-8"?>
<!-- Generator: Adobe Illustrator 25.0.0, SVG Export Plug-In . SVG Version: 6.00 Build 0)  -->
<svg version="1.1" id="图层_1" xmlns="http://www.w3.org/2000/svg" xmlns:xlink="http://www.w3.org/1999/xlink" x="0px" y="0px"
	 viewBox="0 0 16 16" style="enable-background:new 0 0 16 16;" xml:space="preserve">
<style type="text/css">
	.st0{fill:#FFFFFF;}
	.st1{fill:url(#SVGID_1_);}
	.st2{fill:none;stroke:#510C0C;stroke-width:0.25;stroke-linecap:round;stroke-miterlimit:10;}
	.st3{fill:#510C0C;}
</style>
<path class="st0" d="M11.58556,5.98176c0.00053-0.81133-0.2699-1.62672-0.82553-2.30046
	c-1.26996-1.54999-3.54999-1.77002-5.08997-0.5C4.7982,3.89568,4.34714,4.93279,4.34537,5.9776l1.34524,0.00208
	c0.00008-0.65733,0.28311-1.30779,0.82943-1.75841c0.97003-0.79999,2.41003-0.65997,3.20001,0.31
	c0.34961,0.42393,0.5197,0.93761,0.51943,1.44841L11.58556,5.98176z"/>
<linearGradient id="SVGID_1_" gradientUnits="userSpaceOnUse" x1="7.96547" y1="13.31471" x2="7.96547" y2="6.26071">
	<stop  offset="0" style="stop-color:#63BAFD"/>
	<stop  offset="1" style="stop-color:#BDE2FF"/>
</linearGradient>
<path class="st1" d="M11.85125,13.4789H4.07969c-0.35047,0-0.64766-0.25797-0.69703-0.605l-0.855-6.01734
	C2.4675,6.43265,2.79641,6.05359,3.22469,6.05359h9.48156c0.42813,0,0.75719,0.37906,0.69703,0.80297l-0.855,6.01734
	C12.49891,13.22093,12.20187,13.4789,11.85125,13.4789z"/>
<path class="st2" d="M4.21763,6.04318c0-2.06997,1.67804-3.748,3.748-3.748s3.748,1.67804,3.748,3.748 M10.32947,6.04318
	c0-1.32623-1.05833-2.40135-2.36384-2.40135S5.60179,4.71695,5.60179,6.04318"/>
<path class="st3" d="M4.96406,9.16484c0.01156-0.01859,0.03141-0.02969,0.05953-0.03359l0.05188-0.00766
	c0.02297-0.00391,0.04187-0.00094,0.05656,0.00859s0.02969,0.02656,0.04516,0.05078
	c0.03078,0.06406,0.08094,0.11203,0.15063,0.14391c0.06969,0.03203,0.14266,0.04031,0.21875,0.025
	c0.07609-0.01531,0.13656-0.05375,0.18141-0.11516c0.02812-0.03969,0.04281-0.08125,0.04406-0.12469
	c0.00125-0.04344-0.01094-0.0825-0.03641-0.11703C5.71,8.96046,5.67297,8.93609,5.62438,8.92202
	C5.59359,8.91187,5.53422,8.90093,5.44594,8.88937c-0.01797-0.0025-0.06078-0.00891-0.12859-0.01922
	C5.22391,8.85359,5.14875,8.80812,5.09188,8.7339C5.035,8.65968,5.00672,8.57562,5.0075,8.48156
	c0.00063-0.09406,0.03297-0.17562,0.09688-0.24469C5.17094,8.16015,5.25531,8.11249,5.35766,8.0939s0.2025-0.00766,0.30031,0.03266
	s0.175,0.10453,0.23125,0.19281c0.01797,0.02437,0.02297,0.04641,0.01531,0.06625s-0.025,0.03484-0.05188,0.04516L5.81047,8.44812
	C5.78609,8.45968,5.76531,8.46156,5.74813,8.4539C5.73078,8.44624,5.71266,8.43093,5.69344,8.40781
	C5.65891,8.36046,5.61578,8.32624,5.56391,8.30515S5.45906,8.27921,5.40469,8.29078S5.30391,8.33046,5.26563,8.37515
	C5.23359,8.40968,5.21703,8.44906,5.21578,8.49312C5.21453,8.53734,5.22797,8.57687,5.25609,8.61218
	c0.02812,0.03516,0.06656,0.05797,0.11516,0.06812c0.01656,0.00391,0.03547,0.00734,0.05656,0.01062
	s0.04375,0.00609,0.06812,0.00859c0.08437,0.00891,0.15219,0.02109,0.20344,0.03641C5.79656,8.76796,5.87016,8.81843,5.92,8.88749
	s0.07391,0.14578,0.07203,0.23031C5.99016,9.20218,5.96234,9.28156,5.90859,9.35577c-0.07172,0.10234-0.17406,0.165-0.30703,0.18812
	C5.46844,9.56687,5.34062,9.54937,5.21781,9.49109s-0.20797-0.14484-0.25531-0.26C4.95219,9.20546,4.95297,9.18343,4.96437,9.16484
	H4.96406z M6.67297,9.51031C6.65828,9.52499,6.63688,9.53234,6.60875,9.53234H6.56469c-0.02688,0-0.04766-0.00734-0.06234-0.02203
	S6.48031,9.47484,6.48031,9.44796V8.19484c0-0.02687,0.00734-0.04766,0.02203-0.06234s0.03547-0.02203,0.06234-0.02203h0.04406
	c0.02812,0,0.04953,0.00734,0.06422,0.02203C6.68766,8.14718,6.695,8.16796,6.695,8.19484v1.25313
	C6.695,9.47484,6.68766,9.49562,6.67297,9.51031z M7.48375,8.89906H6.59141V8.69187h0.89234V8.89906z M7.56734,9.51031
	C7.55266,9.52499,7.53188,9.53234,7.505,9.53234H7.45891c-0.02688,0-0.04766-0.00734-0.06234-0.02203
	S7.37453,9.47484,7.37453,9.44796V8.19484c0-0.02687,0.00734-0.04766,0.02203-0.06234s0.03547-0.02203,0.06234-0.02203H7.505
	c0.02688,0,0.04766,0.00734,0.06234,0.02203s0.02203,0.03547,0.02203,0.06234v1.25313
	C7.58938,9.47484,7.58203,9.49562,7.56734,9.51031z M8.45781,9.45562C8.34578,9.39031,8.25688,9.30202,8.19109,9.19077
	C8.12516,9.07952,8.09219,8.95734,8.09219,8.82421s0.03297-0.25594,0.09891-0.36844c0.06594-0.1125,0.15516-0.20187,0.26766-0.26766
	c0.1125-0.06594,0.23469-0.09891,0.36656-0.09891s0.25391,0.03297,0.36656,0.09891c0.1125,0.06594,0.20187,0.15516,0.26766,0.26766
	c0.06594,0.11266,0.09891,0.23547,0.09891,0.36844S9.52547,9.07952,9.45953,9.19077
	C9.39359,9.30202,9.30469,9.39031,9.19281,9.45562c-0.11203,0.06531-0.23453,0.09781-0.3675,0.09781
	S8.56969,9.52077,8.45781,9.45562z M9.09016,9.28296C9.16813,9.23812,9.22891,9.17577,9.2725,9.09577
	c0.04344-0.08,0.06531-0.17047,0.06531-0.27156S9.31609,8.63234,9.2725,8.55171c-0.04344-0.08062-0.10453-0.14391-0.18328-0.19
	C9.01047,8.31562,8.9225,8.29265,8.82531,8.29265S8.64016,8.31562,8.56141,8.36171c-0.07875,0.04609-0.13984,0.10938-0.18328,0.19
	c-0.04344,0.08062-0.06531,0.17141-0.06531,0.2725s0.02172,0.19156,0.06531,0.27156c0.04344,0.08,0.10422,0.14234,0.18234,0.18719
	c0.07797,0.04484,0.16625,0.06719,0.26484,0.06719S9.01203,9.32781,9.09016,9.28296z M10.25406,9.51031
	c-0.01469,0.01469-0.03609,0.02203-0.06422,0.02203h-0.04406c-0.02687,0-0.04766-0.00734-0.06234-0.02203
	s-0.02203-0.03547-0.02203-0.06234V8.24859c0-0.04484,0.01156-0.07906,0.03453-0.10266
	c0.02297-0.02359,0.05688-0.03547,0.10172-0.03547h0.07875v1.33766c0,0.02687-0.00734,0.04766-0.02203,0.06234L10.25406,9.51031z
	 M10.22813,8.7514h0.29937c0.04859,0,0.09078-0.00953,0.12672-0.02875C10.69,8.70343,10.7175,8.67718,10.73672,8.6439
	c0.01922-0.03328,0.02875-0.07031,0.02875-0.11125s-0.00953-0.07578-0.02875-0.10844
	C10.7175,8.39155,10.69,8.36593,10.65422,8.34749c-0.03578-0.01859-0.07812-0.02781-0.12672-0.02781h-0.29172V8.11046h0.29172
	c0.08438,0,0.16156,0.02016,0.23125,0.06047c0.06969,0.04031,0.12406,0.09313,0.16313,0.15828
	c0.03906,0.06531,0.05859,0.13313,0.05859,0.20344s-0.01953,0.13844-0.05859,0.20438
	c-0.03906,0.06594-0.09344,0.11969-0.16313,0.16125c-0.06969,0.04156-0.14688,0.06234-0.23125,0.06234h-0.29938
	C10.22812,8.96062,10.22812,8.7514,10.22813,8.7514z"/>
<path class="st0" d="M12.40906,12.92546H3.52187c-0.06906,0-0.125-0.05594-0.125-0.125s0.05594-0.125,0.125-0.125h8.88734
	c0.06906,0,0.125,0.05594,0.125,0.125s-0.05594,0.125-0.125,0.125H12.40906z M13.34656,6.92546H2.58437
	c-0.06906,0-0.125-0.05594-0.125-0.125s0.05594-0.125,0.125-0.125h10.76234c0.06906,0,0.125,0.05594,0.125,0.125
	s-0.05594,0.125-0.125,0.125H13.34656z"/>
<path class="st3" d="M11.85125,13.6039H4.07969c-0.41016,0-0.76297-0.30625-0.82078-0.71234l-0.855-6.01734
	c-0.03379-0.23782,0.03723-0.4786,0.19469-0.66c0.15741-0.18148,0.38585-0.2857,0.62609-0.28562h9.48156
	c0.24031,0,0.46859,0.10406,0.62609,0.28562c0.15745,0.1814,0.22848,0.42218,0.19469,0.66l-0.855,6.01734
	C12.61438,13.29765,12.26156,13.6039,11.85125,13.6039z M3.22469,6.17874C3.05691,6.17869,2.89738,6.25149,2.7875,6.37827
	C2.67754,6.50496,2.62794,6.67313,2.65156,6.83921l0.855,6.01734c0.04031,0.28359,0.28672,0.4975,0.57328,0.4975h7.77156
	c0.28656,0,0.53297-0.21391,0.57328-0.4975l0.855-6.01734c0.02364-0.16609-0.02595-0.33426-0.13594-0.46094
	c-0.10993-0.12672-0.26943-0.19952-0.43719-0.19953H3.22469z"/>
</svg>
