<?xml version="1.0" encoding="utf-8"?>
<!-- Generator: Adobe Illustrator 25.0.0, SVG Export Plug-In . SVG Version: 6.00 Build 0)  -->
<svg version="1.1" id="图层_1" xmlns="http://www.w3.org/2000/svg" xmlns:xlink="http://www.w3.org/1999/xlink" x="0px" y="0px"
	 viewBox="0 0 16 16" style="enable-background:new 0 0 16 16;" xml:space="preserve">
<style type="text/css">
	.st0{fill:#FFFFFF;}
	.st1{fill:#510C0C;}
	.st2{fill:url(#SVGID_1_);}
</style>
<path class="st0" d="M11.47734,3.42437l2.58016,2.58016c0.25688,0.25688,0.25688,0.67328,0,0.93016l-5.54547,5.54547
	c-0.25688,0.25688-0.67328,0.25688-0.93016,0L2.03641,6.93452c-0.25688-0.25688-0.25688-0.67328,0-0.93016l2.58016-2.58016
	c0.12333-0.12332,0.29059-0.19262,0.465-0.19266h5.93078c0.17437,0,0.34172,0.06922,0.465,0.19266L11.47734,3.42437z"/>
<path class="st1" d="M8.04688,12.79718c-0.20047,0-0.40078-0.07625-0.55344-0.22891L1.94797,7.02296
	c-0.30516-0.30516-0.30516-0.80172,0-1.10687l2.58016-2.58016C4.67594,3.18812,4.8725,3.10671,5.08156,3.10671h5.93078
	c0.20906,0,0.40563,0.08141,0.55344,0.22922l2.58016,2.58016c0.30516,0.30516,0.30516,0.80172,0,1.10687l-5.54547,5.54547
	c-0.15266,0.15266-0.35297,0.22891-0.55344,0.22891L8.04688,12.79718z M5.08156,3.35671c-0.14234,0-0.27609,0.05547-0.37672,0.15594
	L2.12469,6.09281c-0.20766,0.20766-0.20766,0.54562,0,0.75328l5.54547,5.54547c0.20766,0.20766,0.54562,0.20766,0.75328,0
	l5.54547-5.54547c0.20766-0.20766,0.20766-0.54563,0-0.75328l-2.58016-2.58016c-0.10063-0.10063-0.23438-0.15594-0.37672-0.15594
	H5.08125H5.08156z"/>
<linearGradient id="SVGID_1_" gradientUnits="userSpaceOnUse" x1="7.97661" y1="11.3787" x2="7.97661" y2="4.39511">
	<stop  offset="0" style="stop-color:#63BAFD"/>
	<stop  offset="1" style="stop-color:#BDE2FF"/>
</linearGradient>
<path class="st2" d="M6.35797,4.3064L5.08766,6.88218C5.00562,7.04859,5.01359,7.24671,5.10859,7.40562l2.46766,4.12734
	c0.20563,0.34391,0.69328,0.34,0.89359-0.00719l2.37906-4.1225c0.09578-0.16609,0.0975-0.37234,0.00422-0.54l-1.44797-2.6025
	C9.31125,4.09202,9.13594,3.98874,8.94687,3.99062L6.81844,4.01249C6.62359,4.01452,6.44625,4.12781,6.35812,4.3064L6.35797,4.3064z
	"/>
<path class="st0" d="M8.32531,10.75765c-0.06902-0.00004-0.12494-0.05602-0.12489-0.12504
	c0.00001-0.02193,0.0058-0.04347,0.01677-0.06246l1.91156-3.3125c0.055-0.09531,0.05594-0.21438,0.00234-0.31063L8.96766,4.85593
	c-0.03359-0.06031-0.01188-0.13641,0.04844-0.17s0.13641-0.01188,0.17,0.04844l1.16344,2.09109
	c0.09609,0.17266,0.09437,0.38609-0.00438,0.55719l-1.91156,3.3125c-0.02312,0.04016-0.06516,0.0625-0.10844,0.0625H8.32531z"/>
<path class="st1" d="M4.70062,7.27499c-0.01375,0-0.0275-0.00234-0.04063-0.00672L3.17406,6.75781
	c-0.06531-0.0225-0.1-0.09359-0.07766-0.15891s0.09359-0.1,0.15891-0.07766l1.46594,0.50359l6.16922-0.01531l1.70922-0.76328
	c0.06312-0.02812,0.13703,0,0.16516,0.06313c0.02812,0.06297,0,0.13703-0.06312,0.16516l-1.73344,0.77406
	c-0.01594,0.00719-0.03312,0.01078-0.05062,0.01094L4.70078,7.27499H4.70047H4.70062z"/>
</svg>
