<?xml version="1.0" standalone="no"?><!DOCTYPE svg PUBLIC "-//W3C//DTD SVG 1.1//EN" "http://www.w3.org/Graphics/SVG/1.1/DTD/svg11.dtd"><svg t="1759753624049" class="icon" viewBox="0 0 1024 1024" version="1.1" xmlns="http://www.w3.org/2000/svg" p-id="3432" xmlns:xlink="http://www.w3.org/1999/xlink" width="16" height="16"><path d="M175 774a341 82 0 1 0 682 0 341 82 0 1 0-682 0Z" fill="#FFFFFF" p-id="3433"></path><path d="M516 864c-91.7 0-177.99-8.61-242.99-24.24-32.05-7.71-57.33-16.75-75.16-26.89-20.47-11.64-30.84-24.71-30.84-38.87s10.38-27.24 30.84-38.87c17.83-10.14 43.12-19.18 75.16-26.89C338.01 692.61 424.31 684 516 684s177.99 8.61 242.99 24.24c32.05 7.71 57.33 16.75 75.16 26.89 20.47 11.64 30.84 24.71 30.84 38.87s-10.38 27.24-30.84 38.87c-17.83 10.14-43.12 19.18-75.16 26.89C693.99 855.39 607.69 864 516 864z m0-164c-90.47 0-175.44 8.45-239.25 23.8-30.16 7.25-54.71 15.98-71 25.24C195.37 754.94 183 764.06 183 774c0 13.37 24.63 33.58 93.75 50.2C340.56 839.54 425.53 848 516 848s175.44-8.45 239.25-23.8c30.16-7.25 54.71-15.98 71-25.24C836.63 793.06 849 783.94 849 774c0-13.37-24.63-33.58-93.75-50.2C691.44 708.46 606.47 700 516 700z" fill="#510C0C" p-id="3434"></path><path d="M301.46 329.12H707c10.67 0 19.34 8.67 19.34 19.34v209.63c0 118.8-96.45 215.25-215.25 215.25h-13.72c-118.8 0-215.25-96.45-215.25-215.25V348.46c0-10.67 8.67-19.34 19.34-19.34z" fill="#FFEB99" p-id="3435"></path><path d="M704.86 661.12c-3.87 0-7.27-2.81-7.89-6.75a8.002 8.002 0 0 1 6.65-9.15c55.87-8.84 96.29-29.66 120.15-61.86 19.12-25.81 28.41-59.21 28.41-102.13 0-15.5-1.85-23.95-6.19-28.25-8.22-8.15-30.81-7.95-71.82-7.59-11.84 0.1-25.25 0.22-40.44 0.16-4.42-0.02-7.98-3.62-7.97-8.03 0.02-4.42 3.6-7.95 8.03-7.97 15.08 0.06 28.44-0.05 40.23-0.16 46.78-0.41 70.26-0.62 83.22 12.23 9.61 9.52 10.93 24.67 10.93 39.62 0 46.47-10.32 82.99-31.55 111.66-26.44 35.69-70.35 58.62-130.5 68.14-0.42 0.07-0.84 0.1-1.26 0.1zM383.31 283.89c-2.05 0-4.09-0.78-5.66-2.34-3.12-3.12-3.12-8.19 0-11.31l18.69-18.69c6.78-6.78 7.05-17.65 0.61-24.75-12.96-14.32-13.04-35.98-0.18-50.38l16.72-18.74c2.94-3.3 8-3.58 11.3-0.64 3.3 2.94 3.58 8 0.64 11.3l-16.72 18.74a21.65 21.65 0 0 0 0.1 28.99c12.16 13.43 11.65 33.99-1.16 46.8l-18.69 18.69a7.98 7.98 0 0 1-5.66 2.34zM488.02 283.89c-2.05 0-4.09-0.78-5.66-2.34-3.12-3.12-3.12-8.19 0-11.31l18.69-18.69c6.78-6.78 7.05-17.65 0.61-24.75-12.96-14.32-13.04-35.98-0.18-50.38l16.72-18.74c2.94-3.3 8-3.58 11.3-0.64 3.3 2.94 3.58 8 0.64 11.3l-16.72 18.74a21.65 21.65 0 0 0 0.1 28.99c12.16 13.43 11.65 33.99-1.16 46.8l-18.69 18.69a7.98 7.98 0 0 1-5.66 2.34zM592.73 283.89c-2.05 0-4.09-0.78-5.66-2.34-3.12-3.12-3.12-8.19 0-11.31l18.69-18.69c6.78-6.78 7.05-17.65 0.61-24.75-12.96-14.32-13.04-35.98-0.18-50.38l16.72-18.74c2.94-3.3 8-3.58 11.3-0.64 3.3 2.94 3.58 8 0.64 11.3l-16.72 18.74a21.65 21.65 0 0 0 0.1 28.99c12.16 13.43 11.65 33.99-1.16 46.8l-18.69 18.69a7.98 7.98 0 0 1-5.66 2.34z" fill="#510C0C" p-id="3436"></path><path d="M726.55 411.96H282.18c-4.42 0-8-3.58-8-8s3.58-8 8-8h444.37c4.42 0 8 3.58 8 8s-3.58 8-8 8z" fill="#FFFFFF" p-id="3437"></path><path d="M508.26 788.13h-13.72c-59.63 0-115.69-23.22-157.86-65.39s-65.39-98.23-65.39-157.86V355.25c0-15.08 12.26-27.34 27.34-27.34h405.54c15.08 0 27.34 12.26 27.34 27.34v209.63c0 59.63-23.22 115.69-65.39 157.86-42.17 42.17-98.23 65.39-157.86 65.39zM298.63 343.91c-6.25 0-11.34 5.09-11.34 11.34v209.63c0 114.28 92.97 207.25 207.25 207.25h13.72c114.28 0 207.25-92.97 207.25-207.25V355.25c0-6.25-5.09-11.34-11.34-11.34H298.63z" fill="#510C0C" p-id="3438"></path></svg>