<?xml version="1.0" encoding="utf-8"?>
<!-- Generator: Adobe Illustrator 25.0.0, SVG Export Plug-In . SVG Version: 6.00 Build 0)  -->
<svg version="1.1" id="图层_1" xmlns="http://www.w3.org/2000/svg" xmlns:xlink="http://www.w3.org/1999/xlink" x="0px" y="0px"
	 viewBox="0 0 16 16" style="enable-background:new 0 0 16 16;" xml:space="preserve">
<style type="text/css">
	.st0{fill:#FFFFFF;}
	.st1{fill:#510C0C;}
	.st2{fill:url(#SVGID_1_);}
	.st3{fill:#63BAFD;}
	.st4{fill:#90CEFE;}
	.st5{fill:#D0F1F7;}
</style>
<path class="st0" d="M2.73438,12.09374c0,0.70761,2.38548,1.28125,5.32812,1.28125s5.32812-0.57364,5.32812-1.28125
	s-2.38548-1.28125-5.32812-1.28125S2.73438,11.38613,2.73438,12.09374z"/>
<path class="st1" d="M8.0625,13.49999c-1.43281,0-2.78109-0.13453-3.79672-0.37875C3.765,13.00077,3.37,12.85952,3.09141,12.70109
	c-0.31984-0.18188-0.48187-0.38609-0.48187-0.60734s0.16219-0.42562,0.48187-0.60734
	c0.27859-0.15844,0.67375-0.29969,1.17438-0.42016c1.01562-0.24422,2.36406-0.37875,3.79672-0.37875
	s2.78109,0.13453,3.79672,0.37875c0.50078,0.12047,0.89578,0.26172,1.17438,0.42016
	c0.31984,0.18188,0.48188,0.38609,0.48188,0.60734s-0.16219,0.42562-0.48188,0.60734
	c-0.27859,0.15844-0.67375,0.29969-1.17438,0.42016C10.84359,13.36546,9.49516,13.49999,8.0625,13.49999z M8.0625,10.93749
	c-1.41359,0-2.74125,0.13203-3.73828,0.37187c-0.47125,0.11328-0.85484,0.24969-1.10938,0.39437
	c-0.16219,0.09219-0.35547,0.23469-0.35547,0.39c0,0.20891,0.38484,0.52469,1.46484,0.78438
	c0.99703,0.23969,2.32469,0.37187,3.73828,0.37187s2.74125-0.13203,3.73828-0.37187
	c0.47125-0.11328,0.85484-0.24969,1.10938-0.39437c0.16219-0.09219,0.35547-0.23469,0.35547-0.39
	c0-0.20891-0.38484-0.52469-1.46484-0.78438C10.80375,11.06968,9.47609,10.93749,8.0625,10.93749z"/>
<path class="st1" d="M11.01344,10.32999c-0.06047,0-0.11359-0.04391-0.12328-0.10547
	c-0.01075-0.06816,0.03575-0.13215,0.10391-0.14297c0.87297-0.13813,1.50453-0.46344,1.87734-0.96656
	c0.29875-0.40328,0.44391-0.92516,0.44391-1.59578c0-0.24219-0.02891-0.37422-0.09672-0.44141
	c-0.12844-0.12734-0.48141-0.12422-1.12219-0.11859c-0.185,0.00156-0.39453,0.00344-0.63188,0.0025
	C11.39547,6.9614,11.33984,6.90515,11.34,6.83624c0.00031-0.06906,0.05625-0.12422,0.12547-0.12453
	c0.23563,0.00094,0.44438-0.00078,0.62859-0.0025c0.73094-0.00641,1.09781-0.00969,1.30031,0.19109
	c0.15016,0.14875,0.17078,0.38547,0.17078,0.61906c0,0.72609-0.16125,1.29672-0.49297,1.74469
	c-0.41313,0.55766-1.09922,0.91594-2.03906,1.06469c-0.00656,0.00109-0.01313,0.00156-0.01969,0.00156V10.32999z M5.98922,4.43577
	c-0.03203,0-0.06391-0.01219-0.08844-0.03656c-0.04875-0.04875-0.04875-0.12797,0-0.17672l0.29203-0.29203
	c0.10594-0.10594,0.11016-0.27578,0.00953-0.38672c-0.2025-0.22375-0.20375-0.56219-0.00281-0.78719l0.26125-0.29281
	c0.04594-0.05156,0.125-0.05594,0.17656-0.01s0.05594,0.125,0.01,0.17656L6.38609,2.92312
	C6.27053,3.05223,6.2712,3.24778,6.38766,3.37609c0.19,0.20984,0.18203,0.53109-0.01813,0.73125L6.0775,4.39937
	C6.05406,4.42283,6.02223,4.43599,5.98906,4.43593L5.98922,4.43577z M7.62531,4.43577c-0.03203,0-0.06391-0.01219-0.08844-0.03656
	c-0.04875-0.04875-0.04875-0.12797,0-0.17672l0.29203-0.29203c0.10594-0.10594,0.11016-0.27578,0.00953-0.38672
	c-0.2025-0.22375-0.20375-0.56219-0.00281-0.78719l0.26125-0.29281c0.04594-0.05156,0.125-0.05594,0.17656-0.01
	s0.05594,0.125,0.01,0.17656L8.02219,2.92312C7.90662,3.05222,7.9073,3.24778,8.02375,3.37609
	c0.19,0.20984,0.18203,0.53109-0.01812,0.73125L7.71359,4.39937C7.69015,4.42283,7.65832,4.43599,7.62516,4.43593L7.62531,4.43577z
	 M9.26141,4.43577c-0.03203,0-0.06391-0.01219-0.08844-0.03656c-0.04875-0.04875-0.04875-0.12797,0-0.17672L9.465,3.93046
	c0.10594-0.10594,0.11016-0.27578,0.00953-0.38672c-0.2025-0.22375-0.20375-0.56219-0.00281-0.78719l0.26125-0.29281
	c0.04594-0.05156,0.125-0.05594,0.17656-0.01s0.05594,0.125,0.01,0.17656L9.65828,2.92312
	C9.54272,3.05222,9.54339,3.24778,9.65984,3.37609c0.19,0.20984,0.18203,0.53109-0.01812,0.73125L9.34969,4.39937
	C9.32625,4.42283,9.29442,4.43599,9.26125,4.43593L9.26141,4.43577z"/>
<linearGradient id="SVGID_1_" gradientUnits="userSpaceOnUse" x1="7.87859" y1="11.83449" x2="7.87859" y2="5.6058">
	<stop  offset="0" style="stop-color:#63BAFD"/>
	<stop  offset="1" style="stop-color:#BDE2FF"/>
</linearGradient>
<path class="st2" d="M4.71031,6.18687h6.33656c0.16672,0,0.30219,0.11509,0.30219,0.25672v2.78262
	c0,1.57695-1.50703,2.85722-3.36328,2.85722H7.77141c-1.85625,0-3.36328-1.28027-3.36328-2.85722V6.44359
	C4.40813,6.30195,4.54359,6.18687,4.71031,6.18687z M11.17984,5.53771c0-0.09064-0.07348-0.16412-0.16412-0.16412H4.65303
	c-0.09064,0-0.16412,0.07348-0.16412,0.16412v0.64916h6.69094V5.53771z"/>
<path class="st0" d="M11.35234,6.43687H4.40906c-0.06906,0-0.125-0.05594-0.125-0.125s0.05594-0.125,0.125-0.125h6.94328
	c0.06906,0,0.125,0.05594,0.125,0.125S11.42141,6.43687,11.35234,6.43687z"/>
<path class="st1" d="M7.94156,12.31452H7.72719c-0.93172,0-1.80766-0.36281-2.46656-1.02172S4.23891,9.75796,4.23891,8.82624
	V5.55077c0-0.23562,0.19156-0.42719,0.42719-0.42719h6.33656c0.23563,0,0.42719,0.19156,0.42719,0.42719v3.27547
	c0,0.93172-0.36281,1.80766-1.02172,2.46656C9.74922,11.95171,8.87328,12.31452,7.94156,12.31452z M4.66609,5.37359
	c-0.09766,0-0.17719,0.07953-0.17719,0.17719v3.27547c0,1.78563,1.45266,3.23828,3.23828,3.23828h0.21438
	c1.78563,0,3.23828-1.45266,3.23828-3.23828V5.55077c0-0.09766-0.07953-0.17719-0.17719-0.17719H4.66609z"/>
</svg>
