<?xml version="1.0" encoding="utf-8"?>
<!-- Generator: Adobe Illustrator 25.0.0, SVG Export Plug-In . SVG Version: 6.00 Build 0)  -->
<svg version="1.1" id="图层_1" xmlns="http://www.w3.org/2000/svg" xmlns:xlink="http://www.w3.org/1999/xlink" x="0px" y="0px"
	 viewBox="0 0 16 16" style="enable-background:new 0 0 16 16;" xml:space="preserve">
<style type="text/css">
	.st0{fill:#FFDEA4;}
	.st1{fill:#510C0C;}
	.st2{fill:#D0F1F7;}
	.st3{fill:#FFFFFF;}
	.st4{fill:#FF41FC;}
	.st5{opacity:0.67;}
	.st6{filter:url(#Adobe_OpacityMaskFilter);}
	.st7{mask:url(#SVGID_1_);}
	.st8{fill:url(#SVGID_2_);}
	.st9{fill:#F16AFB;stroke:#F16AFB;stroke-width:0.15;stroke-linecap:round;stroke-linejoin:round;stroke-miterlimit:10;}
	.st10{fill:#F16AFB;stroke:#F16AFB;stroke-width:0.15;stroke-linecap:round;stroke-miterlimit:10;}
	.st11{filter:url(#Adobe_OpacityMaskFilter_1_);}
	.st12{fill:url(#SVGID_4_);}
	.st13{mask:url(#SVGID_3_);fill:url(#SVGID_5_);}
	.st14{filter:url(#Adobe_OpacityMaskFilter_2_);}
	.st15{fill:url(#SVGID_7_);}
	.st16{mask:url(#SVGID_6_);fill:url(#SVGID_8_);}
	.st17{fill:url(#SVGID_9_);}
	.st18{display:none;fill:#FFFFFF;}
	.st19{fill:#FFDF00;}
	.st20{fill:#FFDF00;stroke:#000000;stroke-width:0.05;stroke-miterlimit:10;}
	.st21{font-family:'HGKT_CNKI';}
	.st22{font-size:4px;}
</style>
<g class="st5">
	<defs>
		<filter id="Adobe_OpacityMaskFilter" filterUnits="userSpaceOnUse" x="2.48631" y="2.13938" width="13.04961" height="13.71681">
			<feFlood  style="flood-color:white;flood-opacity:1" result="back"/>
			<feBlend  in="SourceGraphic" in2="back" mode="normal"/>
		</filter>
	</defs>
	<mask maskUnits="userSpaceOnUse" x="2.48631" y="2.13938" width="13.04961" height="13.71681" id="SVGID_1_">
		<g class="st6">
			<image style="overflow:visible;" width="18" height="18" xlink:href="305276D2.jpg" >
			</image>
		</g>
	</mask>
	<g class="st7">
		
			<radialGradient id="SVGID_2_" cx="3.10055" cy="2.57458" r="11.6548" fx="3.04113" fy="1.90408" gradientTransform="matrix(0.99842 0 0 1.04697 -0.00076 -0.70044)" gradientUnits="userSpaceOnUse">
			<stop  offset="0" style="stop-color:#000000"/>
			<stop  offset="0.15793" style="stop-color:#030303"/>
			<stop  offset="0.28779" style="stop-color:#0D0D0D"/>
			<stop  offset="0.40778" style="stop-color:#1F1F1F"/>
			<stop  offset="0.52182" style="stop-color:#373737"/>
			<stop  offset="0.63166" style="stop-color:#565656"/>
			<stop  offset="0.73834" style="stop-color:#7D7D7D"/>
			<stop  offset="0.84247" style="stop-color:#AAAAAA"/>
			<stop  offset="0.94206" style="stop-color:#DDDDDD"/>
			<stop  offset="1" style="stop-color:#FFFFFF"/>
		</radialGradient>
		<path class="st8" d="M2.48631,12.27603c0.81955,1.32202,0.72187,3.58016,0.72187,3.58016S14.33151,12.04615,15.51555,3.095
			c0,0,0.04586-0.18566,0-0.19528c-1.76072-0.36958-2.32978-0.56008-2.74149-0.76033"/>
	</g>
</g>
<path class="st9" d="M10.49432,3.20623c0.43221-0.30109,1.59426-0.98577,1.5343-2.00389
	c-0.10781-1.83077,1.47567,0.78109,1.47567,0.78109s1.00689-0.06328,1.17391-0.97228
	c0.17935-0.97609,1.32627,0.68452,0.3587,2.19508H10.49432z"/>
<path class="st10" d="M3.25722,15.0902c-0.00693-0.78087-0.01857-2.86587-0.02659-4.37292
	c-0.00137-0.25725-0.62255-0.15273-0.46734-0.0986c0.31577,0.11012-0.84235,1.2058-1.69908,1.12622
	c-1.8627-0.17303,0.87353,1.65597,0.87353,1.65597s0.00102,1.1796-0.92431,1.35788C0.0198,14.95019,1.7279,16.07643,3.25722,15.0902
	"/>
<defs>
	<filter id="Adobe_OpacityMaskFilter_1_" filterUnits="userSpaceOnUse" x="9.52437" y="0.78786" width="7.06259" height="3.90879">
		<feColorMatrix  type="matrix" values="1 0 0 0 0  0 1 0 0 0  0 0 1 0 0  0 0 0 1 0"/>
	</filter>
</defs>
<mask maskUnits="userSpaceOnUse" x="9.52437" y="0.78786" width="7.06259" height="3.90879" id="SVGID_3_">
	<g class="st11">
		<linearGradient id="SVGID_4_" gradientUnits="userSpaceOnUse" x1="13.4477" y1="2.34344" x2="12.308" y2="4.24022">
			<stop  offset="0" style="stop-color:#000000"/>
			<stop  offset="0.05629" style="stop-color:#0A0A0A"/>
			<stop  offset="0.15128" style="stop-color:#242424"/>
			<stop  offset="0.2733" style="stop-color:#4F4F4F"/>
			<stop  offset="0.41763" style="stop-color:#8B8B8B"/>
			<stop  offset="0.57886" style="stop-color:#D5D5D5"/>
			<stop  offset="0.66201" style="stop-color:#FFFFFF"/>
		</linearGradient>
		<polygon class="st12" points="11.95602,1.7042 15.02608,3.29183 10.72962,3.29183 		"/>
	</g>
</mask>
<linearGradient id="SVGID_5_" gradientUnits="userSpaceOnUse" x1="10.12199" y1="5.63781" x2="15.14854" y2="0.67657">
	<stop  offset="0" style="stop-color:#000000"/>
	<stop  offset="0.07464" style="stop-color:#060606"/>
	<stop  offset="0.17626" style="stop-color:#181818"/>
	<stop  offset="0.29342" style="stop-color:#343434"/>
	<stop  offset="0.42223" style="stop-color:#5C5C5C"/>
	<stop  offset="0.5606" style="stop-color:#909090"/>
	<stop  offset="0.70457" style="stop-color:#CDCDCD"/>
	<stop  offset="0.81006" style="stop-color:#FFFFFF"/>
</linearGradient>
<rect x="9.52437" y="0.78786" class="st13" width="7.06259" height="3.90879"/>
<defs>
	<filter id="Adobe_OpacityMaskFilter_2_" filterUnits="userSpaceOnUse" x="0.76289" y="9.02396" width="4.25143" height="7.24629">
		<feColorMatrix  type="matrix" values="1 0 0 0 0  0 1 0 0 0  0 0 1 0 0  0 0 0 1 0"/>
	</filter>
</defs>
<mask maskUnits="userSpaceOnUse" x="0.76289" y="9.02396" width="4.25143" height="7.24629" id="SVGID_6_">
	<g class="st14">
		
			<linearGradient id="SVGID_7_" gradientUnits="userSpaceOnUse" x1="4.17424" y1="11.91133" x2="3.03454" y2="13.8081" gradientTransform="matrix(0.04919 0.99879 0.99879 -0.04919 -9.59266 9.47495)">
			<stop  offset="0" style="stop-color:#000000"/>
			<stop  offset="0.05629" style="stop-color:#0A0A0A"/>
			<stop  offset="0.15128" style="stop-color:#242424"/>
			<stop  offset="0.2733" style="stop-color:#4F4F4F"/>
			<stop  offset="0.41763" style="stop-color:#8B8B8B"/>
			<stop  offset="0.57886" style="stop-color:#D5D5D5"/>
			<stop  offset="0.66201" style="stop-color:#FFFFFF"/>
		</linearGradient>
		<polygon class="st15" points="1.79772,11.59985 3.53443,14.5881 3.32311,10.29684 		"/>
	</g>
</mask>
<linearGradient id="SVGID_8_" gradientUnits="userSpaceOnUse" x1="0.84853" y1="15.20569" x2="5.87508" y2="10.24446" gradientTransform="matrix(0.04919 0.99879 0.99879 -0.04919 -9.59266 9.47495)">
	<stop  offset="0" style="stop-color:#000000"/>
	<stop  offset="0.07464" style="stop-color:#060606"/>
	<stop  offset="0.17626" style="stop-color:#181818"/>
	<stop  offset="0.29342" style="stop-color:#343434"/>
	<stop  offset="0.42223" style="stop-color:#5C5C5C"/>
	<stop  offset="0.5606" style="stop-color:#909090"/>
	<stop  offset="0.70457" style="stop-color:#CDCDCD"/>
	<stop  offset="0.81006" style="stop-color:#FFFFFF"/>
</linearGradient>
<polygon class="st16" points="5.01432,16.07799 4.66695,9.02396 0.76289,9.21621 1.11026,16.27025 "/>
<linearGradient id="SVGID_9_" gradientUnits="userSpaceOnUse" x1="2.30493" y1="2.29102" x2="10.66568" y2="10.65177">
	<stop  offset="0" style="stop-color:#FFFFFF"/>
	<stop  offset="0.08141" style="stop-color:#FCE3FE"/>
	<stop  offset="0.20945" style="stop-color:#F9BEFD"/>
	<stop  offset="0.34376" style="stop-color:#F6A0FC"/>
	<stop  offset="0.48398" style="stop-color:#F488FC"/>
	<stop  offset="0.63273" style="stop-color:#F277FB"/>
	<stop  offset="0.79566" style="stop-color:#F16DFB"/>
	<stop  offset="1" style="stop-color:#F16AFB"/>
</linearGradient>
<path class="st17" d="M3.27759,13.78812c0,0,9.46969-3.10759,10.4777-10.40845c0,0,0.03904-0.15143,0-0.15928
	c-2.67105-0.53715-2.12078-0.61052-3.33138-1.0915C9.32264,1.69135,8.47308,2.00448,8.16375,2.62934
	C6.90217,5.17781,5.36155,6.31436,2.8587,7.4115c-1.19022,0.52174-1.27174,1.79348-0.19565,3.45652
	C3.36075,11.9463,3.27759,13.78812,3.27759,13.78812z"/>
<path class="st18" d="M6.40918,8.28674C6.3877,8.10998,6.37207,7.93273,6.3623,7.75549
	C6.34082,7.59924,6.29395,7.4381,6.22168,7.27111C6.19043,7.20861,6.21582,7.17736,6.2998,7.17736
	c0.09375,0.03125,0.17188,0.05762,0.23438,0.07812c0.00977,0.01074,0.08301,0,0.21875-0.03125
	c0.125-0.02051,0.21875-0.0415,0.28125-0.0625C7.10645,7.14123,7.19531,7.16711,7.2998,7.23986
	c0.09375,0.0625,0.10938,0.125,0.04688,0.1875c-0.05273,0.03125-0.09375,0.09912-0.125,0.20312
	c-0.05273,0.11475-0.05762,0.19824-0.01562,0.25c0.04102,0.125,0.00488,0.1875-0.10938,0.1875
	c-0.1875,0.021-0.36523,0.03662-0.53125,0.04688c0,0.19824-0.02148,0.30225-0.0625,0.3125
	C6.47168,8.45861,6.44043,8.41174,6.40918,8.28674z M6.89355,7.36486C6.78906,7.38586,6.6748,7.40148,6.5498,7.41174
	c0,0.21875,0.00488,0.40625,0.01562,0.5625c0.05176,0,0.18164-0.01562,0.39062-0.04688
	C6.9873,7.78185,7.00293,7.62023,7.00293,7.44299C6.98145,7.40148,6.94531,7.3756,6.89355,7.36486z M8.64355,8.66174
	c0.09375,0,0.17676,0.03613,0.25,0.10938c0.0625,0.07324,0.02051,0.11426-0.125,0.12451c-0.17773,0-0.37012,0.00488-0.57812,0.01562
	c-0.21875,0.02051-0.38574,0.07812-0.5,0.17188C7.61719,9.13488,7.55957,9.11926,7.51855,9.03625
	c-0.05273-0.07324-0.07324-0.125-0.0625-0.15576c0.125-0.19824,0.11914-0.41113-0.01562-0.64062
	c-0.02148-0.05176,0-0.07275,0.0625-0.0625c0.10352,0.021,0.17676,0.05225,0.21875,0.09375c0.00977,0.05225,0.00977,0.13574,0,0.25
	c0,0.11426-0.00586,0.18262-0.01562,0.20312c0,0.05176,0.03125,0.07812,0.09375,0.07812
	C8.05957,8.76037,8.34082,8.71349,8.64355,8.66174z M7.70605,6.50549c-0.01074-0.05176,0.00977-0.08838,0.0625-0.10938
	c0.07227,0.021,0.15625,0.03662,0.25,0.04688c0.13477-0.01025,0.28613-0.03125,0.45312-0.0625
	c0.15625-0.03125,0.28613-0.07275,0.39062-0.125c0.09375-0.02051,0.21875,0.021,0.375,0.125
	c0.14551,0.09375,0.19727,0.16162,0.15625,0.20312C9.27832,6.67736,9.19043,6.80773,9.12793,6.97424
	c-0.0625,0.15625-0.125,0.28662-0.1875,0.39062C8.83594,7.47961,8.77832,7.47424,8.76855,7.34924
	c-0.08398,0-0.19824,0.00537-0.34375,0.01562c-0.14648,0.01074-0.23438,0.021-0.26562,0.03125
	c0.03125,0.021,0.06738,0.05225,0.10938,0.09375C8.2998,7.53185,8.29395,7.5631,8.25293,7.58361
	C8.16895,7.63586,8.11719,7.67248,8.09668,7.69299c0.34375,0.021,0.70312-0.03613,1.07812-0.17188
	c0.0625,0,0.15625,0.02637,0.28125,0.07812C9.57031,7.65148,9.62207,7.70373,9.6123,7.75549
	c-0.0625,0.146-0.08887,0.27637-0.07812,0.39062c0,0.13574-0.01074,0.3125-0.03125,0.53125
	c-0.02148,0.229-0.05762,0.44189-0.10938,0.64014c-0.0625,0.16602-0.16211,0.29688-0.29688,0.39062
	c-0.125,0.08301-0.20312,0.08789-0.23438,0.01562c-0.05273-0.25-0.14062-0.42188-0.26562-0.51562
	c-0.03125-0.04199-0.02148-0.0625,0.03125-0.0625C8.71094,9.17687,8.80957,9.21301,8.9248,9.255
	c0.09375,0.04199,0.16602,0.01562,0.21875-0.07812c0.04102-0.15625,0.08301-0.35889,0.125-0.60889
	c0.00977-0.229,0.00488-0.45312-0.01562-0.67188c-0.04199-0.09375-0.09375-0.13525-0.15625-0.125
	c-0.17773,0.021-0.375,0.04199-0.59375,0.0625c0.08301,0.03125,0.10352,0.06787,0.0625,0.10938
	C8.52344,7.97424,8.4873,8.02111,8.45605,8.08361c0.04102,0,0.10352,0.01562,0.1875,0.04688
	c0.07227,0.03125,0.12988,0.07812,0.17188,0.14062c0.03125,0.0835,0.03125,0.146,0,0.1875
	c-0.03125,0.05225-0.06836,0.0625-0.10938,0.03125c-0.10449-0.104-0.20898-0.21338-0.3125-0.32812
	c-0.125,0.15625-0.25586,0.271-0.39062,0.34375c-0.16699,0.05225-0.20898,0.04688-0.125-0.01562
	C7.98145,8.39611,8.08105,8.28674,8.1748,8.16174c0.07227-0.11426,0.125-0.21875,0.15625-0.3125H8.1748
	c-0.0625,0.021-0.13086,0.01074-0.20312-0.03125C7.9502,7.84924,7.89844,7.88586,7.81543,7.92736
	c-0.08398,0.05225-0.16699,0.08887-0.25,0.10938c-0.05273,0-0.05762-0.02588-0.01562-0.07812
	c0.25977-0.19775,0.41602-0.38525,0.46875-0.5625c-0.02148-0.02051-0.03711-0.0415-0.04688-0.0625
	C7.9502,7.1881,7.91895,7.04211,7.87793,6.89611C7.83594,6.7506,7.77832,6.62023,7.70605,6.50549z M8.59668,6.94299
	C8.4502,6.98498,8.28906,6.99523,8.1123,6.97424c0.00977,0.09375,0.02051,0.1875,0.03125,0.28125
	c0.17676-0.01025,0.36426-0.02588,0.5625-0.04688c0.04102,0,0.07227-0.01562,0.09375-0.04688
	c0.07227-0.23926,0.11914-0.43213,0.14062-0.57812c0.02051-0.07275-0.02148-0.11426-0.125-0.125
	c-0.24023,0.04199-0.5,0.0835-0.78125,0.125c0.00977,0.09375,0.02539,0.18262,0.04688,0.26562
	C8.19531,6.83898,8.30957,6.8131,8.4248,6.77111C8.50781,6.76086,8.5752,6.77648,8.62793,6.81799
	C8.67969,6.87023,8.66895,6.91174,8.59668,6.94299z"/>
<path class="st19" d="M6.40918,8.28674C6.3877,8.10998,6.37207,7.93273,6.3623,7.75549
	C6.34082,7.59924,6.29395,7.4381,6.22168,7.27111C6.19043,7.20861,6.21582,7.17736,6.2998,7.17736
	c0.09375,0.03125,0.17188,0.05762,0.23438,0.07812c0.00977,0.01074,0.08301,0,0.21875-0.03125
	c0.125-0.02051,0.21875-0.0415,0.28125-0.0625C7.10645,7.14123,7.19531,7.16711,7.2998,7.23986
	c0.09375,0.0625,0.10938,0.125,0.04688,0.1875c-0.05273,0.03125-0.09375,0.09912-0.125,0.20312
	c-0.05273,0.11475-0.05762,0.19824-0.01562,0.25c0.04102,0.125,0.00488,0.1875-0.10938,0.1875
	c-0.1875,0.021-0.36523,0.03662-0.53125,0.04688c0,0.19824-0.02148,0.30225-0.0625,0.3125
	C6.47168,8.45861,6.44043,8.41174,6.40918,8.28674z M6.89355,7.36486C6.78906,7.38586,6.6748,7.40148,6.5498,7.41174
	c0,0.21875,0.00488,0.40625,0.01562,0.5625c0.05176,0,0.18164-0.01562,0.39062-0.04688
	C6.9873,7.78185,7.00293,7.62023,7.00293,7.44299C6.98145,7.40148,6.94531,7.3756,6.89355,7.36486z M8.64355,8.66174
	c0.09375,0,0.17676,0.03613,0.25,0.10938c0.0625,0.07324,0.02051,0.11426-0.125,0.12451c-0.17773,0-0.37012,0.00488-0.57812,0.01562
	c-0.21875,0.02051-0.38574,0.07812-0.5,0.17188C7.61719,9.13488,7.55957,9.11926,7.51855,9.03625
	c-0.05273-0.07324-0.07324-0.125-0.0625-0.15576c0.125-0.19824,0.11914-0.41113-0.01562-0.64062
	c-0.02148-0.05176,0-0.07275,0.0625-0.0625c0.10352,0.021,0.17676,0.05225,0.21875,0.09375c0.00977,0.05225,0.00977,0.13574,0,0.25
	c0,0.11426-0.00586,0.18262-0.01562,0.20312c0,0.05176,0.03125,0.07812,0.09375,0.07812
	C8.05957,8.76037,8.34082,8.71349,8.64355,8.66174z M7.70605,6.50549c-0.01074-0.05176,0.00977-0.08838,0.0625-0.10938
	c0.07227,0.021,0.15625,0.03662,0.25,0.04688c0.13477-0.01025,0.28613-0.03125,0.45312-0.0625
	c0.15625-0.03125,0.28613-0.07275,0.39062-0.125c0.09375-0.02051,0.21875,0.021,0.375,0.125
	c0.14551,0.09375,0.19727,0.16162,0.15625,0.20312C9.27832,6.67736,9.19043,6.80773,9.12793,6.97424
	c-0.0625,0.15625-0.125,0.28662-0.1875,0.39062C8.83594,7.47961,8.77832,7.47424,8.76855,7.34924
	c-0.08398,0-0.19824,0.00537-0.34375,0.01562c-0.14648,0.01074-0.23438,0.021-0.26562,0.03125
	c0.03125,0.021,0.06738,0.05225,0.10938,0.09375C8.2998,7.53185,8.29395,7.5631,8.25293,7.58361
	C8.16895,7.63586,8.11719,7.67248,8.09668,7.69299c0.34375,0.021,0.70312-0.03613,1.07812-0.17188
	c0.0625,0,0.15625,0.02637,0.28125,0.07812C9.57031,7.65148,9.62207,7.70373,9.6123,7.75549
	c-0.0625,0.146-0.08887,0.27637-0.07812,0.39062c0,0.13574-0.01074,0.3125-0.03125,0.53125
	c-0.02148,0.229-0.05762,0.44189-0.10938,0.64014c-0.0625,0.16602-0.16211,0.29688-0.29688,0.39062
	c-0.125,0.08301-0.20312,0.08789-0.23438,0.01562c-0.05273-0.25-0.14062-0.42188-0.26562-0.51562
	c-0.03125-0.04199-0.02148-0.0625,0.03125-0.0625C8.71094,9.17687,8.80957,9.21301,8.9248,9.255
	c0.09375,0.04199,0.16602,0.01562,0.21875-0.07812c0.04102-0.15625,0.08301-0.35889,0.125-0.60889
	c0.00977-0.229,0.00488-0.45312-0.01562-0.67188c-0.04199-0.09375-0.09375-0.13525-0.15625-0.125
	c-0.17773,0.021-0.375,0.04199-0.59375,0.0625c0.08301,0.03125,0.10352,0.06787,0.0625,0.10938
	C8.52344,7.97424,8.4873,8.02111,8.45605,8.08361c0.04102,0,0.10352,0.01562,0.1875,0.04688
	c0.07227,0.03125,0.12988,0.07812,0.17188,0.14062c0.03125,0.0835,0.03125,0.146,0,0.1875
	c-0.03125,0.05225-0.06836,0.0625-0.10938,0.03125c-0.10449-0.104-0.20898-0.21338-0.3125-0.32812
	c-0.125,0.15625-0.25586,0.271-0.39062,0.34375c-0.16699,0.05225-0.20898,0.04688-0.125-0.01562
	C7.98145,8.39611,8.08105,8.28674,8.1748,8.16174c0.07227-0.11426,0.125-0.21875,0.15625-0.3125H8.1748
	c-0.0625,0.021-0.13086,0.01074-0.20312-0.03125C7.9502,7.84924,7.89844,7.88586,7.81543,7.92736
	c-0.08398,0.05225-0.16699,0.08887-0.25,0.10938c-0.05273,0-0.05762-0.02588-0.01562-0.07812
	c0.25977-0.19775,0.41602-0.38525,0.46875-0.5625c-0.02148-0.02051-0.03711-0.0415-0.04688-0.0625
	C7.9502,7.1881,7.91895,7.04211,7.87793,6.89611C7.83594,6.7506,7.77832,6.62023,7.70605,6.50549z M8.59668,6.94299
	C8.4502,6.98498,8.28906,6.99523,8.1123,6.97424c0.00977,0.09375,0.02051,0.1875,0.03125,0.28125
	c0.17676-0.01025,0.36426-0.02588,0.5625-0.04688c0.04102,0,0.07227-0.01562,0.09375-0.04688
	c0.07227-0.23926,0.11914-0.43213,0.14062-0.57812c0.02051-0.07275-0.02148-0.11426-0.125-0.125
	c-0.24023,0.04199-0.5,0.0835-0.78125,0.125c0.00977,0.09375,0.02539,0.18262,0.04688,0.26562
	C8.19531,6.83898,8.30957,6.8131,8.4248,6.77111C8.50781,6.76086,8.5752,6.77648,8.62793,6.81799
	C8.67969,6.87023,8.66895,6.91174,8.59668,6.94299z"/>
<path class="st18" d="M3.75684,10.26769c-0.1875,0.36523-0.4375,0.66699-0.75,0.90625
	c-0.11523,0.0625-0.14648,0.04688-0.09375-0.04688c0.15625-0.16602,0.29688-0.34863,0.42188-0.54688
	c0.10352-0.17676,0.21289-0.39062,0.32812-0.64062C3.5166,9.96105,3.40234,9.97082,3.31934,9.97082
	c-0.07324,0-0.14648-0.02051-0.21875-0.0625C3.0166,9.8673,3.03809,9.83019,3.16309,9.79894
	C3.3291,9.78918,3.52734,9.76281,3.75684,9.72082c0-0.20801,0-0.35352,0-0.4375c0-0.07227,0-0.14062,0-0.20312
	c0.00977-0.1875,0-0.34424-0.03125-0.46924C3.7041,8.57971,3.69434,8.54846,3.69434,8.51721
	c0-0.04102,0.02539-0.0625,0.07812-0.0625C3.82422,8.47619,3.8916,8.51232,3.97559,8.56408
	c0.07227,0.0625,0.10352,0.125,0.09375,0.1875c-0.03125,0.0625-0.05762,0.13086-0.07812,0.20361
	C3.98047,9.03918,3.96973,9.10656,3.95996,9.15832C3.94922,9.3048,3.94434,9.47668,3.94434,9.67394
	C4.0166,9.66418,4.08496,9.65344,4.14746,9.64269c0.16602,0.02148,0.23438,0.07324,0.20312,0.15625
	C4.3291,9.83019,4.27734,9.85656,4.19434,9.87707c-0.08398,0.01074-0.16699,0.02148-0.25,0.03125v0.40625h0.03125
	c0.0625,0,0.12988,0.01074,0.20312,0.03125c0.0625,0.03125,0.10352,0.08398,0.125,0.15625
	c0.03125,0.24023-0.09375,0.22949-0.375-0.03125c0,0.1875-0.00586,0.39062-0.01562,0.60938c0,0.20898,0,0.38086,0,0.51562
	c0,0.14551-0.01562,0.27539-0.04688,0.39062c-0.04199,0.09375-0.09961,0.06738-0.17188-0.07812
	c-0.07324-0.21875-0.08398-0.36914-0.03125-0.45312c0.03125-0.10352,0.05176-0.22363,0.0625-0.35938
	c0.00977-0.10352,0.01562-0.23926,0.01562-0.40625C3.75098,10.53332,3.75684,10.39269,3.75684,10.26769z M5.28809,10.93957
	c-0.11523,0.16699-0.25,0.32812-0.40625,0.48438c-0.14648,0.17773-0.32812,0.3125-0.54688,0.40625
	c-0.11523,0.02051-0.14648,0.00977-0.09375-0.03125c0.16602-0.13477,0.33789-0.30176,0.51562-0.5
	c0.15625-0.1875,0.27051-0.375,0.34375-0.5625c-0.16699,0.03125-0.28711,0.06836-0.35938,0.10938
	c-0.09375,0.03125-0.17773,0.01562-0.25-0.04688c-0.07324-0.0625-0.07812-0.10352-0.01562-0.125
	c0.20801-0.02051,0.43164-0.0625,0.67188-0.125c0.22852-0.04102,0.44238-0.09375,0.64062-0.15625
	c0.05176-0.00977,0.125,0,0.21875,0.03125c0.11426,0.08398,0.10938,0.14062-0.01562,0.17188
	c-0.1875,0-0.42188,0.03125-0.70312,0.09375c0.07227,0.04199,0.09375,0.09375,0.0625,0.15625
	c0.10352,0.02148,0.19727,0.03125,0.28125,0.03125c0.0625,0,0.12988,0.01562,0.20312,0.04688
	c0.09375,0.08398,0.125,0.16211,0.09375,0.23438c-0.08398,0.10449-0.14648,0.22949-0.1875,0.375
	c-0.04199,0.13574-0.09961,0.27051-0.17188,0.40625c-0.14648,0.19727-0.26074,0.25977-0.34375,0.1875
	c-0.0625-0.125-0.16211-0.27148-0.29688-0.4375c-0.05273-0.08301-0.02637-0.10352,0.07812-0.0625
	c0.125,0.0625,0.21289,0.10352,0.26562,0.125c0.04102,0,0.08301-0.01562,0.125-0.04688
	c0.11426-0.125,0.1875-0.29688,0.21875-0.51562c0.02051-0.0625,0.00977-0.10938-0.03125-0.14062
	C5.53223,11.03918,5.43359,11.00207,5.28809,10.93957z M5.99121,9.95519c0.00977-0.05176-0.02637-0.06738-0.10938-0.04688
	c-0.40625,0.08398-0.82812,0.16699-1.26562,0.25c-0.04199,0-0.0625,0.00586-0.0625,0.01562
	c0,0.15625-0.04688,0.28711-0.14062,0.39062c-0.05273,0.05273-0.08887,0.03711-0.10938-0.04688
	c-0.02148-0.08301-0.02148-0.15039,0-0.20312c0.04102-0.08301,0.06738-0.19727,0.07812-0.34375
	c0.00977-0.08301,0.05664-0.05664,0.14062,0.07812c0.19727-0.03125,0.44238-0.08789,0.73438-0.17188
	C5.3291,9.71105,5.35547,9.51281,5.33496,9.28332C5.12598,9.33605,4.96484,9.36144,4.85059,9.36144
	c-0.07324,0-0.14062-0.01562-0.20312-0.04688c-0.08398-0.03125-0.08398-0.05664,0-0.07812
	c0.375-0.07227,0.71875-0.16602,1.03125-0.28125C5.71973,8.93469,5.77734,8.9298,5.85059,8.93957
	c0.07227,0.01074,0.11914,0.04688,0.14062,0.10938c-0.02148,0.05273-0.08398,0.08887-0.1875,0.10938
	c-0.125,0.04199-0.22949,0.07324-0.3125,0.09375C5.54297,9.27355,5.58984,9.3048,5.63184,9.34582
	c0.04102,0.05273,0.05176,0.08887,0.03125,0.10938C5.56934,9.57043,5.49609,9.70031,5.44434,9.84582
	c0.16602-0.03125,0.34375-0.08301,0.53125-0.15625C6.0791,9.6798,6.19434,9.73156,6.31934,9.84582
	c0.11426,0.11523,0.14551,0.1875,0.09375,0.21875c-0.20898,0-0.38574,0.0625-0.53125,0.1875
	c-0.05273,0.02148-0.06836,0.00586-0.04688-0.04688C5.90723,10.11144,5.95996,10.02844,5.99121,9.95519z M4.91309,9.86144
	C4.8291,9.77844,4.77734,9.66418,4.75684,9.51769c-0.01074-0.08301,0.02051-0.10352,0.09375-0.0625
	c0.0625,0.04199,0.125,0.09961,0.1875,0.17188c0.03125,0.08398,0.03125,0.15137,0,0.20312
	C5.00684,9.90344,4.96484,9.91418,4.91309,9.86144z M5.22559,10.47082c-0.0625-0.02051-0.12012-0.0625-0.17188-0.125
	c-0.0625-0.04102-0.10449-0.08301-0.125-0.125c-0.02148-0.04102,0-0.06738,0.0625-0.07812c0.09375,0,0.1875,0.02148,0.28125,0.0625
	c0.0625,0.04199,0.08789,0.09961,0.07812,0.17188C5.33984,10.46105,5.29785,10.4923,5.22559,10.47082z M5.33496,8.89269
	c-0.125-0.06299-0.24023-0.15088-0.34375-0.26611c-0.07324-0.0625-0.06836-0.09375,0.01562-0.09375
	c0.15625,0,0.26562,0.01074,0.32812,0.03125c0.125,0.05273,0.18164,0.13086,0.17188,0.23438
	C5.48535,8.89269,5.42871,8.92394,5.33496,8.89269z"/>
<path class="st19" d="M3.75684,10.26769c-0.1875,0.36523-0.4375,0.66699-0.75,0.90625
	c-0.11523,0.0625-0.14648,0.04688-0.09375-0.04688c0.15625-0.16602,0.29688-0.34863,0.42188-0.54688
	c0.10352-0.17676,0.21289-0.39062,0.32812-0.64062C3.5166,9.96105,3.40234,9.97082,3.31934,9.97082
	c-0.07324,0-0.14648-0.02051-0.21875-0.0625C3.0166,9.8673,3.03809,9.83019,3.16309,9.79894
	C3.3291,9.78918,3.52734,9.76281,3.75684,9.72082c0-0.20801,0-0.35352,0-0.4375c0-0.07227,0-0.14062,0-0.20312
	c0.00977-0.1875,0-0.34424-0.03125-0.46924C3.7041,8.57971,3.69434,8.54846,3.69434,8.51721
	c0-0.04102,0.02539-0.0625,0.07812-0.0625C3.82422,8.47619,3.8916,8.51232,3.97559,8.56408
	c0.07227,0.0625,0.10352,0.125,0.09375,0.1875c-0.03125,0.0625-0.05762,0.13086-0.07812,0.20361
	C3.98047,9.03918,3.96973,9.10656,3.95996,9.15832C3.94922,9.3048,3.94434,9.47668,3.94434,9.67394
	C4.0166,9.66418,4.08496,9.65344,4.14746,9.64269c0.16602,0.02148,0.23438,0.07324,0.20312,0.15625
	C4.3291,9.83019,4.27734,9.85656,4.19434,9.87707c-0.08398,0.01074-0.16699,0.02148-0.25,0.03125v0.40625h0.03125
	c0.0625,0,0.12988,0.01074,0.20312,0.03125c0.0625,0.03125,0.10352,0.08398,0.125,0.15625
	c0.03125,0.24023-0.09375,0.22949-0.375-0.03125c0,0.1875-0.00586,0.39062-0.01562,0.60938c0,0.20898,0,0.38086,0,0.51562
	c0,0.14551-0.01562,0.27539-0.04688,0.39062c-0.04199,0.09375-0.09961,0.06738-0.17188-0.07812
	c-0.07324-0.21875-0.08398-0.36914-0.03125-0.45312c0.03125-0.10352,0.05176-0.22363,0.0625-0.35938
	c0.00977-0.10352,0.01562-0.23926,0.01562-0.40625C3.75098,10.53332,3.75684,10.39269,3.75684,10.26769z M5.28809,10.93957
	c-0.11523,0.16699-0.25,0.32812-0.40625,0.48438c-0.14648,0.17773-0.32812,0.3125-0.54688,0.40625
	c-0.11523,0.02051-0.14648,0.00977-0.09375-0.03125c0.16602-0.13477,0.33789-0.30176,0.51562-0.5
	c0.15625-0.1875,0.27051-0.375,0.34375-0.5625c-0.16699,0.03125-0.28711,0.06836-0.35938,0.10938
	c-0.09375,0.03125-0.17773,0.01562-0.25-0.04688c-0.07324-0.0625-0.07812-0.10352-0.01562-0.125
	c0.20801-0.02051,0.43164-0.0625,0.67188-0.125c0.22852-0.04102,0.44238-0.09375,0.64062-0.15625
	c0.05176-0.00977,0.125,0,0.21875,0.03125c0.11426,0.08398,0.10938,0.14062-0.01562,0.17188
	c-0.1875,0-0.42188,0.03125-0.70312,0.09375c0.07227,0.04199,0.09375,0.09375,0.0625,0.15625
	c0.10352,0.02148,0.19727,0.03125,0.28125,0.03125c0.0625,0,0.12988,0.01562,0.20312,0.04688
	c0.09375,0.08398,0.125,0.16211,0.09375,0.23438c-0.08398,0.10449-0.14648,0.22949-0.1875,0.375
	c-0.04199,0.13574-0.09961,0.27051-0.17188,0.40625c-0.14648,0.19727-0.26074,0.25977-0.34375,0.1875
	c-0.0625-0.125-0.16211-0.27148-0.29688-0.4375c-0.05273-0.08301-0.02637-0.10352,0.07812-0.0625
	c0.125,0.0625,0.21289,0.10352,0.26562,0.125c0.04102,0,0.08301-0.01562,0.125-0.04688
	c0.11426-0.125,0.1875-0.29688,0.21875-0.51562c0.02051-0.0625,0.00977-0.10938-0.03125-0.14062
	C5.53223,11.03918,5.43359,11.00207,5.28809,10.93957z M5.99121,9.95519c0.00977-0.05176-0.02637-0.06738-0.10938-0.04688
	c-0.40625,0.08398-0.82812,0.16699-1.26562,0.25c-0.04199,0-0.0625,0.00586-0.0625,0.01562
	c0,0.15625-0.04688,0.28711-0.14062,0.39062c-0.05273,0.05273-0.08887,0.03711-0.10938-0.04688
	c-0.02148-0.08301-0.02148-0.15039,0-0.20312c0.04102-0.08301,0.06738-0.19727,0.07812-0.34375
	c0.00977-0.08301,0.05664-0.05664,0.14062,0.07812c0.19727-0.03125,0.44238-0.08789,0.73438-0.17188
	C5.3291,9.71105,5.35547,9.51281,5.33496,9.28332C5.12598,9.33605,4.96484,9.36144,4.85059,9.36144
	c-0.07324,0-0.14062-0.01562-0.20312-0.04688c-0.08398-0.03125-0.08398-0.05664,0-0.07812
	c0.375-0.07227,0.71875-0.16602,1.03125-0.28125C5.71973,8.93469,5.77734,8.9298,5.85059,8.93957
	c0.07227,0.01074,0.11914,0.04688,0.14062,0.10938c-0.02148,0.05273-0.08398,0.08887-0.1875,0.10938
	c-0.125,0.04199-0.22949,0.07324-0.3125,0.09375C5.54297,9.27355,5.58984,9.3048,5.63184,9.34582
	c0.04102,0.05273,0.05176,0.08887,0.03125,0.10938C5.56934,9.57043,5.49609,9.70031,5.44434,9.84582
	c0.16602-0.03125,0.34375-0.08301,0.53125-0.15625C6.0791,9.6798,6.19434,9.73156,6.31934,9.84582
	c0.11426,0.11523,0.14551,0.1875,0.09375,0.21875c-0.20898,0-0.38574,0.0625-0.53125,0.1875
	c-0.05273,0.02148-0.06836,0.00586-0.04688-0.04688C5.90723,10.11144,5.95996,10.02844,5.99121,9.95519z M4.91309,9.86144
	C4.8291,9.77844,4.77734,9.66418,4.75684,9.51769c-0.01074-0.08301,0.02051-0.10352,0.09375-0.0625
	c0.0625,0.04199,0.125,0.09961,0.1875,0.17188c0.03125,0.08398,0.03125,0.15137,0,0.20312
	C5.00684,9.90344,4.96484,9.91418,4.91309,9.86144z M5.22559,10.47082c-0.0625-0.02051-0.12012-0.0625-0.17188-0.125
	c-0.0625-0.04102-0.10449-0.08301-0.125-0.125c-0.02148-0.04102,0-0.06738,0.0625-0.07812c0.09375,0,0.1875,0.02148,0.28125,0.0625
	c0.0625,0.04199,0.08789,0.09961,0.07812,0.17188C5.33984,10.46105,5.29785,10.4923,5.22559,10.47082z M5.33496,8.89269
	c-0.125-0.06299-0.24023-0.15088-0.34375-0.26611c-0.07324-0.0625-0.06836-0.09375,0.01562-0.09375
	c0.15625,0,0.26562,0.01074,0.32812,0.03125c0.125,0.05273,0.18164,0.13086,0.17188,0.23438
	C5.48535,8.89269,5.42871,8.92394,5.33496,8.89269z"/>
<path class="st18" d="M8.72998,4.66418c0.125-0.1665,0.19727-0.354,0.21875-0.5625C8.9585,4.02892,8.98975,4.0343,9.04199,4.1173
	c0.05176,0.09375,0.07227,0.20312,0.0625,0.32812c-0.01074,0.10449-0.03711,0.2085-0.07812,0.3125
	c-0.0415,0.125-0.09912,0.21387-0.17139,0.26562C8.771,5.06555,8.72412,5.02892,8.71436,4.91418
	C8.69287,4.81017,8.69873,4.72668,8.72998,4.66418z M9.76074,5.0548C9.64551,4.85705,9.55176,4.62805,9.47949,4.3673
	c-0.02148-0.104-0.01562-0.16113,0.01562-0.17188c0.02051,0,0.04102,0.01562,0.0625,0.04688
	c0.125,0.3125,0.24414,0.52637,0.35938,0.64062c0.21875-0.27051,0.40625-0.58301,0.5625-0.9375
	c0.14551-0.354,0.22852-0.61426,0.25-0.78125c-0.01074-0.0625-0.01562-0.125-0.01562-0.1875
	c-0.01074-0.05176,0.02539-0.07275,0.10938-0.0625c0.07227,0.021,0.15039,0.06787,0.23438,0.14062
	c0.07227,0.07324,0.08301,0.14062,0.03125,0.20312c-0.07324,0.0625-0.13086,0.17188-0.17188,0.32812
	c-0.11523,0.271-0.24023,0.54199-0.375,0.8125c-0.15625,0.271-0.3125,0.49512-0.46875,0.67188
	c0.25977,0.1875,0.61426,0.28125,1.0625,0.28125c0.0625,0.01074,0.09375-0.02588,0.09375-0.10938
	c0-0.08301-0.04688-0.24463-0.14062-0.48438c-0.03125-0.104,0-0.11426,0.09375-0.03125c0.15625,0.22949,0.32227,0.40625,0.5,0.53125
	c0.08301,0.09375,0.05664,0.17725-0.07812,0.25c-0.13574,0.07324-0.28711,0.11475-0.45312,0.125
	c-0.3125,0.01074-0.5625-0.02588-0.75-0.10938c-0.19824-0.0625-0.37012-0.16113-0.51562-0.29688
	C9.52051,5.50793,9.20312,5.69055,8.93311,5.77355c-0.11523,0.01025-0.13574-0.01562-0.0625-0.07812
	C9.18262,5.53918,9.47949,5.3258,9.76074,5.0548z M9.55762,3.21105c-0.0625-0.104-0.03711-0.12988,0.07812-0.07812
	c0.07227,0.03125,0.15039,0.07812,0.23438,0.14062C9.94238,3.3258,10,3.3883,10.04199,3.46105
	c0.04102,0.125,0.04102,0.22412,0,0.29688C9.98926,3.83117,9.93262,3.83605,9.87012,3.77355
	C9.79688,3.7008,9.73926,3.61242,9.69824,3.50793C9.63574,3.40392,9.58887,3.3048,9.55762,3.21105z M11.29199,4.02355
	c-0.07324-0.11426-0.02148-0.14551,0.15625-0.09375c0.17676,0.04199,0.33789,0.11475,0.48438,0.21875
	c0.07227,0.0835,0.10352,0.1875,0.09375,0.3125c-0.02148,0.125-0.06836,0.17188-0.14062,0.14062
	c-0.10449-0.05176-0.20898-0.13525-0.3125-0.25C11.45801,4.22668,11.36426,4.1173,11.29199,4.02355z"/>
<path class="st19" d="M8.72998,4.66418c0.125-0.1665,0.19727-0.354,0.21875-0.5625C8.9585,4.02892,8.98975,4.0343,9.04199,4.1173
	c0.05176,0.09375,0.07227,0.20312,0.0625,0.32812c-0.01074,0.10449-0.03711,0.2085-0.07812,0.3125
	c-0.0415,0.125-0.09912,0.21387-0.17139,0.26562C8.771,5.06555,8.72412,5.02892,8.71436,4.91418
	C8.69287,4.81017,8.69873,4.72668,8.72998,4.66418z M9.76074,5.0548C9.64551,4.85705,9.55176,4.62805,9.47949,4.3673
	c-0.02148-0.104-0.01562-0.16113,0.01562-0.17188c0.02051,0,0.04102,0.01562,0.0625,0.04688
	c0.125,0.3125,0.24414,0.52637,0.35938,0.64062c0.21875-0.27051,0.40625-0.58301,0.5625-0.9375
	c0.14551-0.354,0.22852-0.61426,0.25-0.78125c-0.01074-0.0625-0.01562-0.125-0.01562-0.1875
	c-0.01074-0.05176,0.02539-0.07275,0.10938-0.0625c0.07227,0.021,0.15039,0.06787,0.23438,0.14062
	c0.07227,0.07324,0.08301,0.14062,0.03125,0.20312c-0.07324,0.0625-0.13086,0.17188-0.17188,0.32812
	c-0.11523,0.271-0.24023,0.54199-0.375,0.8125c-0.15625,0.271-0.3125,0.49512-0.46875,0.67188
	c0.25977,0.1875,0.61426,0.28125,1.0625,0.28125c0.0625,0.01074,0.09375-0.02588,0.09375-0.10938
	c0-0.08301-0.04688-0.24463-0.14062-0.48438c-0.03125-0.104,0-0.11426,0.09375-0.03125c0.15625,0.22949,0.32227,0.40625,0.5,0.53125
	c0.08301,0.09375,0.05664,0.17725-0.07812,0.25c-0.13574,0.07324-0.28711,0.11475-0.45312,0.125
	c-0.3125,0.01074-0.5625-0.02588-0.75-0.10938c-0.19824-0.0625-0.37012-0.16113-0.51562-0.29688
	C9.52051,5.50793,9.20312,5.69055,8.93311,5.77355c-0.11523,0.01025-0.13574-0.01562-0.0625-0.07812
	C9.18262,5.53918,9.47949,5.3258,9.76074,5.0548z M9.55762,3.21105c-0.0625-0.104-0.03711-0.12988,0.07812-0.07812
	c0.07227,0.03125,0.15039,0.07812,0.23438,0.14062C9.94238,3.3258,10,3.3883,10.04199,3.46105
	c0.04102,0.125,0.04102,0.22412,0,0.29688C9.98926,3.83117,9.93262,3.83605,9.87012,3.77355
	C9.79688,3.7008,9.73926,3.61242,9.69824,3.50793C9.63574,3.40392,9.58887,3.3048,9.55762,3.21105z M11.29199,4.02355
	c-0.07324-0.11426-0.02148-0.14551,0.15625-0.09375c0.17676,0.04199,0.33789,0.11475,0.48438,0.21875
	c0.07227,0.0835,0.10352,0.1875,0.09375,0.3125c-0.02148,0.125-0.06836,0.17188-0.14062,0.14062
	c-0.10449-0.05176-0.20898-0.13525-0.3125-0.25C11.45801,4.22668,11.36426,4.1173,11.29199,4.02355z"/>
<text transform="matrix(1 0 0 1 1.88911 -0.53411)" class="st20 st21 st22">必</text>
</svg>
