<?xml version="1.0" encoding="utf-8"?>
<!-- Generator: Adobe Illustrator 25.0.0, SVG Export Plug-In . SVG Version: 6.00 Build 0)  -->
<svg version="1.1" id="图层_1" xmlns="http://www.w3.org/2000/svg" xmlns:xlink="http://www.w3.org/1999/xlink" x="0px" y="0px"
	 viewBox="0 0 16 16" style="enable-background:new 0 0 16 16;" xml:space="preserve">
<style type="text/css">
	.st0{fill:#FFDEA4;}
	.st1{fill:#510C0C;}
	.st2{fill:#D0F1F7;}
	.st3{fill:#FFFFFF;}
	.st4{fill:#FF41FC;}
	.st5{fill:#FAB3FF;stroke:#FAB3FF;stroke-width:0.15;stroke-linecap:round;stroke-linejoin:round;stroke-miterlimit:10;}
	.st6{fill:#FAB3FF;stroke:#FAB3FF;stroke-width:0.15;stroke-linecap:round;stroke-miterlimit:10;}
	.st7{fill:#FFDF00;stroke:#FFFFFF;stroke-width:0.05;stroke-miterlimit:10;}
	.st8{font-family:'HGKT_CNKI';}
	.st9{font-size:4px;}
</style>
<path class="st5" d="M10.49432,3.20623c0.43221-0.30109,1.59426-0.98577,1.5343-2.00389
	c-0.10781-1.83077,1.47567,0.78109,1.47567,0.78109s1.00689-0.06328,1.17391-0.97228
	c0.17935-0.97609,1.32627,0.68452,0.3587,2.19508H10.49432z"/>
<path class="st6" d="M3.20149,15.09088C3.19005,13.81103,3.36385,8,3.36385,8s-0.48686,3.91853-2.31258,3.74505
	c-1.82572-0.17348,0.85657,1.65618,0.85657,1.65618s0.00129,1.1796-0.90561,1.35765
	C0.02838,14.95008,1.7028,16.07674,3.20149,15.09088"/>
<path class="st6" d="M3.27759,13.78812c0,0,9.46969-3.10759,10.4777-10.40845c0,0,0.03904-0.15143,0-0.15928
	c-2.67105-0.53715-2.12078-0.61052-3.33138-1.0915C9.32264,1.69135,8.47308,2.00448,8.16375,2.62934
	C6.90217,5.17781,5.36155,6.31436,2.8587,7.4115c-1.19022,0.52174-1.27174,1.79348-0.19565,3.45652
	C3.36075,11.9463,3.27759,13.78812,3.27759,13.78812z"/>
<text transform="matrix(1 0 0 1 5.95586 9.36477)" class="st7 st8 st9">喝</text>
<text transform="matrix(1 0 0 1 2.67884 11.72057)" class="st7 st8 st9">榜</text>
<text transform="matrix(1 0 0 1 8.27666 5.72676)" class="st7 st8 st9">必</text>
</svg>
