<?xml version="1.0" encoding="utf-8"?>
<!-- Generator: Adobe Illustrator 25.0.0, SVG Export Plug-In . SVG Version: 6.00 Build 0)  -->
<svg version="1.1" id="图层_1" xmlns="http://www.w3.org/2000/svg" xmlns:xlink="http://www.w3.org/1999/xlink" x="0px" y="0px"
	 viewBox="0 0 1024 1024" style="enable-background:new 0 0 1024 1024;" xml:space="preserve">
<style type="text/css">
	.st0{fill-rule:evenodd;clip-rule:evenodd;fill:#30313A;stroke:#000000;stroke-width:3.26115;}
	.st1{fill-rule:evenodd;clip-rule:evenodd;fill:#F9B65D;stroke:#FFB000;stroke-width:13.04459;}
	.st2{fill-rule:evenodd;clip-rule:evenodd;fill:#FFFFFF;}
	.st3{fill-rule:evenodd;clip-rule:evenodd;fill:#F9EBD4;}
	.st4{fill-rule:evenodd;clip-rule:evenodd;fill:#F9DDA5;}
	.st5{fill-rule:evenodd;clip-rule:evenodd;fill:#F9CE78;}
	.st6{fill-rule:evenodd;clip-rule:evenodd;fill:#F9BF5A;}
	.st7{fill-rule:evenodd;clip-rule:evenodd;fill:#32323B;stroke:#000000;stroke-width:3.26115;}
	.st8{fill-rule:evenodd;clip-rule:evenodd;fill:#32323B;stroke:#FFFFFF;stroke-width:19.56688;}
	.st9{fill-rule:evenodd;clip-rule:evenodd;fill:#FFFFFF;stroke:#000000;stroke-width:3.26115;}
	.st10{fill:#FFB703;}
	.st11{fill-rule:evenodd;clip-rule:evenodd;fill:#32323B;}
</style>
<path id="形状结合" class="st0" d="M533.68762,247.84711c7.20435,0,13.04462,5.84026,13.04462,13.04459v88.05096
	c0,5.12201-2.95209,9.5545-7.24762,11.68893c84.67358,23.4819,146.91766,77.76904,186.73389,162.85852
	c45.33118-1.79449,82.60339,7.46393,111.81665,27.77521c29.21326,20.31122,50.5282,48.53064,63.94489,84.6582h37.23016v68.48407
	H801.25085c-15.98315-67.03741-53.97595-100.55615-113.97858-100.55615c-60.00256,0-97.38904,33.51874-112.15936,100.55615
	h-141.6087c-10.47076-67.03741-47.07037-100.55615-109.79886-100.55615s-99.34137,33.51874-109.83865,100.55615h-94.96647
	c-4.82319-53.84558,2.16988-101.03827,20.97919-141.578s58.93329-76.31006,120.37192-107.31091
	c41.13397-46.58929,85.02008-77.76724,131.65829-93.53391l-24.6727,0.00247c-7.20435,0-13.04459-5.84027-13.04459-13.04459
	v-88.05096c0-7.20433,5.84024-13.04459,13.04459-13.04459H533.68762z"/>
<path id="矩形" class="st1" d="M360.70569,267.414h153.40607c7.20435,0,13.04462,5.84024,13.04462,13.04459v75.00635
	c0,7.20435-5.84027,13.04459-13.04462,13.04459H360.70569c-7.20435,0-13.04459-5.84024-13.04459-13.04459v-75.00635
	C347.6611,273.25424,353.50134,267.414,360.70569,267.414z"/>
<path id="矩形_1_" class="st2" d="M386.82623,303.28659L386.82623,303.28659c1.80231,0,3.26337,1.46109,3.26337,3.2634v22.82355
	c0,1.80231-1.46106,3.2634-3.26337,3.2634l0,0c-1.80234,0-3.2634-1.46109-3.2634-3.2634v-22.82355
	C383.56284,304.74768,385.0239,303.28659,386.82623,303.28659z"/>
<path id="矩形备份-2" class="st3" d="M409.66992,303.28659L409.66992,303.28659c1.80234,0,3.2634,1.46109,3.2634,3.2634
	v22.82355c0,1.80231-1.46106,3.2634-3.2634,3.2634l0,0c-1.80231,0-3.26337-1.46109-3.26337-3.2634v-22.82355
	C406.40656,304.74768,407.86761,303.28659,409.66992,303.28659z"/>
<path id="矩形备份-3" class="st4" d="M435.77704,303.28659L435.77704,303.28659c1.80231,0,3.26337,1.46109,3.26337,3.2634
	v22.82355c0,1.80231-1.46106,3.2634-3.26337,3.2634l0,0c-1.80231,0-3.2634-1.46109-3.2634-3.2634v-22.82355
	C432.51364,304.74768,433.97473,303.28659,435.77704,303.28659z"/>
<path id="矩形备份-4" class="st5" d="M461.88416,303.28659h-0.00003c1.80234,0,3.2634,1.46109,3.2634,3.2634v22.82355
	c0,1.80231-1.46106,3.2634-3.2634,3.2634h0.00003c-1.80234,0-3.2634-1.46109-3.2634-3.2634v-22.82355
	C458.62076,304.74768,460.08182,303.28659,461.88416,303.28659z"/>
<path id="矩形备份-5" class="st6" d="M487.99124,303.28659L487.99124,303.28659c1.80234,0,3.2634,1.46109,3.2634,3.2634
	v22.82355c0,1.80231-1.46106,3.2634-3.2634,3.2634l0,0c-1.80234,0-3.2634-1.46109-3.2634-3.2634v-22.82355
	C484.72784,304.74768,486.1889,303.28659,487.99124,303.28659z"/>
<g id="编组" transform="translate(151.9206, 388.0764)">
	<ellipse id="椭圆形" class="st7" cx="156.58432" cy="319.59232" rx="70.16394" ry="70.11464"/>
	<ellipse id="椭圆形_1_" class="st8" cx="156.58434" cy="319.59232" rx="22.85043" ry="22.82803"/>
</g>
<g id="编组备份" transform="translate(504.3664, 388.0764)">
	<ellipse id="椭圆形_2_" class="st7" cx="156.58432" cy="319.59232" rx="70.16394" ry="70.11464"/>
	<ellipse id="椭圆形_3_" class="st8" cx="156.58434" cy="319.59232" rx="22.85043" ry="22.82803"/>
</g>
<path id="路径-62" class="st9" d="M181.23282,704.40759c10.4973-67.03741,47.1102-100.55615,109.83865-100.55615
	s99.32809,33.51874,109.79886,100.55615H542.479c14.77039-67.03741,52.15686-100.55615,112.15942-100.55615
	s97.99542,33.51874,113.97852,100.55615h137.95935v-68.48407h-37.2301c-13.41669-36.12756-34.73163-64.34698-63.94489-84.6582
	c-29.21332-20.31128-66.48553-29.5697-111.81665-27.77521c-43.06512-92.03241-112.36731-148.03076-207.90671-167.99509
	s-181.55951,13.37689-258.06049,100.02365c-61.43861,31.00085-101.56259,66.77118-120.3719,107.31091
	s-25.80239,87.73242-20.9792,141.578H181.23282z"/>
<path id="椭圆形_4_" class="st10" d="M818.68207,443.91278c5.40717,0,9.79053,4.38531,9.79053,9.79489
	s-4.38336,9.79489-9.79053,9.79489s-9.79053-4.38531-9.79053-9.79489S813.2749,443.91278,818.68207,443.91278z M818.68207,447.17773
	c-3.6048,0-6.52704,2.92355-6.52704,6.52994s2.92224,6.52994,6.52704,6.52994s6.52704-2.92355,6.52704-6.52994
	S822.28687,447.17773,818.68207,447.17773z"/>
<g id="编组-4" transform="translate(164.9743, 140.2293)">
	<g id="编组-3" transform="translate(0, 0)">
		<path id="形状结合_1_" class="st9" d="M272.43381,249.4771l-0.00058,146.75142l-185.58339-0.00009
			c10.19726-42.21118,34.21707-78.97238,66.95663-105.14456c32.5844-26.04813,73.80733-41.60619,118.63777-41.60619
			L272.43381,249.4771z"/>
		<path id="矩形_2_" class="st11" d="M188.43849,316.33118h22.56848c3.60217,0,6.52231,2.92014,6.52231,6.52231v71.74521l0,0
			H181.9162v-71.74521C181.9162,319.25131,184.83632,316.33118,188.43849,316.33118z"/>
	</g>
	<g id="编组-3_1_" transform="translate(296.9685, 75.006) scale(-1, 1) translate(-296.9685, -75.006)translate(202.3309, 0)">
		<path id="形状结合_2_" class="st9" d="M102.85419,249.4771l-0.00056,146.75142l-185.5834-0.00009
			c10.19726-42.21118,34.21707-78.97238,66.95663-105.14456c32.58439-26.04813,73.80732-41.60619,118.63776-41.60619
			L102.85419,249.4771z"/>
		<path id="矩形_3_" class="st11" d="M54.75614,316.33118h22.5685c3.60216,0,6.52229,2.92014,6.52229,6.52231v71.74521l0,0
			H48.23385v-71.74521C48.23385,319.25131,51.15398,316.33118,54.75614,316.33118z"/>
		<rect id="矩形_4_" x="-9.73207" y="394.59869" class="st11" width="3.26339" height="-32.61146"/>
		<polygon id="矩形备份" class="st11" points="-24.79109,347.42444 -22.48353,345.11847 23.66774,391.23804 21.36017,393.54401 
					"/>
	</g>
</g>
<path id="路径-19" class="st10" d="M97.17412,486.15674c0.77174-0.46558,1.77461-0.2171,2.23999,0.55499l10.15939,16.85504
	c0.46537,0.77209,0.21701,1.77542-0.55473,2.241c-0.77174,0.46558-1.77461,0.2171-2.23999-0.55496l-10.15939-16.85507
	C96.15401,487.62564,96.40237,486.62231,97.17412,486.15674z"/>
<path id="路径-19备份" class="st10" d="M111.07082,476.12735c0.9012,0,1.63176,0.7309,1.63176,1.63248v15.03412
	c0,0.90158-0.73056,1.63248-1.63176,1.63248c-0.90119,0-1.63175-0.7309-1.63175-1.63248v-15.03412
	C109.43906,476.85825,110.16962,476.12735,111.07082,476.12735z"/>
</svg>
