<?xml version="1.0" encoding="utf-8"?>
<!-- Generator: Adobe Illustrator 25.0.0, SVG Export Plug-In . SVG Version: 6.00 Build 0)  -->
<svg version="1.1" id="图层_1" xmlns="http://www.w3.org/2000/svg" xmlns:xlink="http://www.w3.org/1999/xlink" x="0px" y="0px"
	 viewBox="0 0 31.9748 16" style="enable-background:new 0 0 31.9748 16;" xml:space="preserve">
<style type="text/css">
	.st0{fill:#7B91A3;}
	.st1{fill:none;stroke:#7B91A3;stroke-width:0.5;stroke-linecap:round;stroke-miterlimit:10;}
</style>
<line class="st1" x1="9.09364" y1="11.91354" x2="4.16861" y2="7.59592"/>
<path class="st1" d="M14.7911,9.67054l9.43167-7.6566"/>
<path class="st1" d="M13.87346,10.2948c0-0.22856,0.45882-0.62425,0.91764-0.62425"/>
<path class="st1" d="M12.82702,10.65289c0.19335-0.26205,0.30975-0.44434,1.04644-0.3581"/>
<path class="st1" d="M11.58394,10.41269c0.214-0.10646,0.74259-0.30963,1.24307,0.2402"/>
<path class="st1" d="M5.96783,5.54357l4.92503,4.31761c0,0,0.69107,0.1498,0.69107,0.5515"/>
<path class="st1" d="M14.81923,13.28232c2.05564,0.86269,1.849-1.29948,1.849-1.29948l12.28004-9.9689"/>
<path class="st1" d="M12.74415,13.83432c0.35578,0.76184,2.0991,0.55928,2.07507-0.552"/>
<path class="st1" d="M10.64351,13.34898c-0.02947,0.16935,0.73468,1.47736,2.10064,0.48534"/>
<path class="st1" d="M9.09364,11.91354c0,0-0.35791,1.58697,1.54987,1.43544"/>
<line class="st1" x1="10.89287" y1="9.86119" x2="9.09364" y2="11.91354"/>
<line class="st1" x1="11.58394" y1="10.41269" x2="10.5826" y2="13.41438"/>
<line class="st1" x1="12.82702" y1="10.65289" x2="12.69812" y2="13.99721"/>
<line class="st1" x1="13.87346" y1="10.2948" x2="14.83588" y2="13.37851"/>
<line class="st1" x1="14.7911" y1="9.67054" x2="16.66822" y2="11.98284"/>
<path class="st0" d="M6.51401,13.95031h-0.0376c-0.23633,0.03418-0.50977,0.10156-0.82031,0.20312H5.63755
	c-0.26123-0.13525-0.54102-0.28223-0.83936-0.43994s-0.55908-0.30469-0.7832-0.43994
	c-0.39795,0.51855-0.91357,0.85156-1.54736,0.99854l-0.01855,0.01709V14.255v-0.08447v-0.01709h0.01855
	c0.34766-0.12402,0.63379-0.27637,0.85742-0.45703c0.22412-0.18018,0.3916-0.34961,0.50342-0.50781
	c-0.23584-0.13525-0.40381-0.23682-0.50342-0.30469c-0.09961-0.05615-0.23633-0.11865-0.41016-0.18604H2.89634v-0.01709V12.63
	v-0.01709h0.01855l0.33594-0.06738h0.01855v0.0166c0.04932,0.11328,0.13037,0.19238,0.24219,0.2373
	c0.12402,0.0791,0.26123,0.1582,0.41016,0.23682c0.1123-0.20312,0.19287-0.41748,0.24268-0.64307
	c-0.21143,0.02246-0.4165,0.03955-0.61523,0.05078c-0.0127,0.10156-0.03125,0.1582-0.05615,0.16895
	c-0.0127,0.02295-0.01855,0.02832-0.01855,0.01709c-0.0127,0-0.0249,0-0.0376,0c-0.03711-0.01123-0.07129-0.05078-0.10254-0.11865
	c-0.03076-0.06738-0.04639-0.13525-0.04639-0.20312H3.26938l0.01855-0.0166c0.0249-0.0791,0.03711-0.21436,0.03711-0.40625v-0.38965
	c-0.01221-0.23682-0.04346-0.43408-0.09326-0.59229v-0.01709v-0.01709l0.05615-0.03369l0.01855-0.01709l0.01855,0.01709
	c0.08691,0.09033,0.15527,0.16943,0.20508,0.23682L4.29477,11.005v-0.45703c-0.83301,0.04492-1.28662,0.08447-1.36133,0.11816
	l-0.01855,0.01709H2.89634l-0.24219-0.15234l-0.07471-0.03369h0.07471c1.06885-0.06787,1.83936-0.11572,2.31201-0.14404
	c0.47217-0.02832,0.7334-0.07617,0.7832-0.14404l0.01855-0.01709l0.01855,0.01709l0.29834,0.16943l0.07471,0.05078H6.08481
	c-0.64648,0.05664-1.16846,0.09033-1.56641,0.10156v0.45703l0.76465-0.06787l0.18652-0.15234l0.01855-0.0166l0.01855,0.0166
	l0.24268,0.18652l0.01855,0.0166l-0.01855,0.01709l-0.18652,0.11865l-0.13037,1.03271l0.14893,0.10156l0.07471,0.03369H5.5814
	c-0.08691,0.01123-0.24219,0.02539-0.46631,0.04248c-0.22363,0.0166-0.45996,0.03125-0.7085,0.04199
	c-0.08691,0.28223-0.18652,0.54199-0.29834,0.77881c0.16162,0.10156,0.36377,0.21191,0.60596,0.33008
	c0.24268,0.11865,0.46338,0.21777,0.66211,0.29639c0.13672,0.06787,0.32324,0.10156,0.55957,0.10156
	c0.17383-0.01123,0.354-0.02295,0.54053-0.03369l0.0376-0.01709v0.03369v0.06787V13.95031z M3.54917,11.24182v1.03271
	l0.6709-0.05078c0.01221-0.15771,0.03125-0.30469,0.05615-0.43994c-0.18652,0.02246-0.34229,0.05078-0.46631,0.08447H3.79136
	l-0.24219-0.11865l-0.07471-0.03369l0.09326-0.01709c0.23584-0.02246,0.47217-0.05078,0.7085-0.08447c0-0.14648,0-0.29346,0-0.44043
	L3.54917,11.24182z M4.89145,11.49572l0.01855-0.01709l0.01904,0.01709l0.24219,0.13525l0.07471,0.03418H5.17124
	c-0.24902,0.03369-0.47852,0.06201-0.68994,0.08447c0,0.14697-0.01855,0.29932-0.05615,0.45703l0.80225-0.06738l0.14893-1.0498
	l-0.87646,0.06787c0,0.12402,0,0.26514,0,0.42285C4.71128,11.5465,4.84165,11.51867,4.89145,11.49572z"/>
<path class="st0" d="M8.75577,6.89416V6.85998L8.73722,6.7926L8.71817,6.77551h0.01904
	c0.09912-0.03369,0.17969-0.05664,0.24219-0.06787c0.54688-0.14648,1.05664-0.36377,1.5293-0.65137
	c0.47217-0.28809,0.85742-0.65186,1.15576-1.09229c-0.52197,0.02295-0.80811,0.05664-0.85742,0.10156H10.788l-0.13037-0.11816
	l-0.31689,0.25391c0.14893,0.1582,0.27344,0.31592,0.37305,0.47412l0.01855,0.0166L10.71378,5.7091l-0.14941,0.32178
	l-0.03711,0.06738L10.5087,6.03088c-0.07471-0.30469-0.16797-0.55322-0.27979-0.74512
	c-0.34814,0.23682-0.7085,0.4458-1.08154,0.62646l-0.0376,0.01709V5.89513L9.07267,5.84435V5.81066h0.01855
	c0.38525-0.21436,0.76123-0.47412,1.12842-0.77881c0.36621-0.30469,0.59326-0.56982,0.68018-0.7959v-0.0166h0.01904h0.07422h0.01904
	v0.0166l0.13037,0.32178l0.01855,0.03418h-0.03711c-0.0874,0-0.20508,0.08447-0.35449,0.25391
	c0.16162,0,0.3291-0.00879,0.50342-0.02539c0.17383-0.01709,0.32959-0.03125,0.46631-0.04248l0.14893-0.18604l0.01904-0.01709
	l0.01855,0.01709l0.24219,0.25391l0.0376,0.03369L12.14933,4.8966c-0.08691,0.02246-0.17432,0.0957-0.26123,0.21973
	c-0.44727,0.56445-0.94482,0.97656-1.4917,1.23584c-0.54688,0.25977-1.08789,0.43457-1.62207,0.5249L8.75577,6.89416z
	 M11.58976,3.15295l0.01904-0.03418l0.01855,0.01709l0.22363,0.23682l0.03711,0.03418l-0.05566,0.0166
	c-0.09961,0.02295-0.18652,0.09619-0.26123,0.22021c-0.31055,0.37256-0.70215,0.68311-1.1748,0.93115
	c-0.47217,0.24854-0.96338,0.4458-1.47266,0.59229h-0.0376v-0.0166V5.08263L8.86759,5.06555h0.01855
	c1.09375-0.36084,1.91406-0.88037,2.46143-1.55713c-0.18652,0.02246-0.38525,0.03955-0.59668,0.05078
	s-0.34229,0.03369-0.3916,0.06738l-0.01855,0.03418l-0.01855-0.01709l-0.16797-0.13525
	c-0.36084,0.32715-0.73975,0.58691-1.1377,0.77832L8.99796,4.30383L8.97941,4.28674L8.96085,4.23596L8.9423,4.20226h0.01855
	c0.68359-0.43994,1.1748-0.90283,1.47314-1.38818c0.04932-0.07861,0.08057-0.15771,0.09326-0.23682c0-0.01123,0-0.02246,0-0.03418
	v-0.0166h0.01855l0.07471-0.01709l0.01855-0.01709v0.01709l0.20508,0.33838l0.01855,0.01709L10.8256,2.88195
	c-0.07471,0.03369-0.16162,0.10156-0.26123,0.20312s-0.20508,0.20898-0.31689,0.32178
	c0.37305-0.02246,0.77051-0.04492,1.19336-0.06787L11.58976,3.15295z M9.89298,3.71154l0.01904-0.01709l0.03711-0.03369
	l0.01855-0.03418l0.01855,0.01709c0.16162,0.13525,0.31689,0.271,0.46631,0.40625l0.01855,0.01709l-0.01855,0.0166
	c-0.03711,0.10156-0.09326,0.20312-0.16797,0.30518l-0.01855,0.05078L10.24747,4.3717
	c-0.03711-0.18066-0.14941-0.39502-0.33545-0.64355L9.89298,3.71154z"/>
<path class="st0" d="M14.21494,6.43713l0.01855-0.01709c0.0625-0.13525,0.08691-0.32129,0.07471-0.55859V4.65978
	c-0.26074,0.40625-0.59668,0.76758-1.00684,1.0835l-0.01855,0.0166l-0.01855-0.03369l-0.0376-0.05078V5.65832v-0.0166
	c0.43506-0.40674,0.76465-0.86914,0.98828-1.38818C13.85459,4.28722,13.62461,4.32678,13.525,4.3717h-0.01855l-0.24219-0.15234
	l-0.05615-0.05078h0.07471c0.36035-0.03369,0.70215-0.06787,1.02539-0.10156V3.01769
	c-0.01221-0.25977-0.03711-0.4458-0.07471-0.55908l-0.01855-0.0166l0.01855-0.01709l0.05615-0.05078l0.01855-0.01709
	l0.01855,0.01709l0.26123,0.23682l0.01855,0.01709l-0.01855,0.03369c-0.0498,0.06787-0.06836,0.18652-0.05615,0.35596v1.01562
	c0.17432-0.02246,0.29834-0.04492,0.37305-0.06787l0.01855-0.01709v0.01709l0.22412,0.13525l0.05566,0.03418l-0.07471,0.0166
	c-0.19873,0.02295-0.39795,0.04004-0.59668,0.05078V4.3717c0.19873,0.11328,0.38525,0.22607,0.55957,0.33887l0.01855,0.0166
	c-0.01221,0.13574-0.03711,0.25391-0.07422,0.35547L15.0167,5.13342l-0.01855-0.03369
	c-0.14893-0.21436-0.30469-0.39502-0.46631-0.5415v1.64209c0,0.01074-0.00293,0.08984-0.00928,0.23682
	c-0.00635,0.14648-0.01562,0.25977-0.02783,0.33838c-0.0127,0.02295-0.0249,0.02832-0.03711,0.01709h-0.01904
	c-0.03711-0.02246-0.07764-0.07031-0.12109-0.14404c-0.04346-0.07324-0.07178-0.13818-0.08398-0.19434L14.21494,6.43713z
	 M13.65586,3.06847h0.01855l0.03711-0.03418h0.01855h0.01904c0.02441,0.03418,0.07715,0.10156,0.1582,0.20312
	c0.08057,0.10156,0.14014,0.19775,0.17725,0.28809c0,0.10156-0.0498,0.24268-0.14941,0.42285l-0.03711,0.06787V3.93176
	c-0.0498-0.29346-0.12451-0.56982-0.22363-0.82959L13.65586,3.06847z M14.60654,3.93176l0.01855-0.01709
	c0.13672-0.31592,0.22412-0.61475,0.26123-0.89697V3.0006V2.98351l0.03711-0.06738l0.01904-0.03418l0.03711,0.03418l0.22363,0.2876
	l0.01855,0.03369l-0.03711,0.01709c-0.0498,0.02295-0.08691,0.06201-0.11182,0.11865
	c-0.07471,0.18066-0.19922,0.37793-0.37305,0.59229l-0.01855,0.03369l-0.01855-0.0166l-0.0376-0.03418L14.60654,3.93176z
	 M15.03574,3.35607l0.07422-0.01709l0.89502-0.13525V3.01769c0-0.03418,0-0.07373,0-0.11865
	c0.01221-0.14648-0.01221-0.29346-0.07422-0.44043l-0.01904-0.0166l0.01904-0.01709l0.07422-0.05078l0.01807-0.01709v0.01709
	l0.26172,0.23682v0.01709v0.03369c-0.0625,0.06787-0.08691,0.18652-0.07422,0.35596v0.16895
	c0.41016-0.06738,0.63379-0.11816,0.6709-0.15234L16.9,3.01769l0.01953,0.0166l0.25977,0.13574l0.07422,0.03369H17.1793
	c-0.34766,0.06787-0.6709,0.12451-0.96875,0.16943v0.27051c0.27344-0.03369,0.41602-0.06738,0.42871-0.10156h0.01855h0.01855
	l0.26074,0.15234l0.05664,0.03418h-0.07422c-0.26172,0.03369-0.49805,0.06201-0.70898,0.08447v0.32178
	c0.63379-0.05664,0.96875-0.10742,1.00586-0.15234l0.01953-0.01709l0.01758,0.01709l0.28125,0.15234l0.07422,0.03369h-0.09375
	c-0.21094,0.02295-0.4375,0.04834-0.67969,0.07617c-0.24316,0.02832-0.47656,0.05664-0.69922,0.08496
	c-0.22461,0.02783-0.41748,0.05078-0.57861,0.06738c-0.16162,0.01709-0.25488,0.03125-0.27979,0.04248l-0.01855,0.01709
	l-0.01855-0.01709l-0.24268-0.13525l-0.09326-0.03418h0.09326c0.13672,0,0.29541-0.01123,0.47559-0.03369
	s0.35693-0.04492,0.53125-0.06787V3.8468c-0.31055,0.05664-0.48486,0.09619-0.52197,0.11865h-0.01855L15.22178,3.8468
	L15.14756,3.8131l0.07422-0.01709c0.29834-0.03369,0.55957-0.07324,0.7832-0.11816V3.38976
	c-0.34814,0.05664-0.56543,0.09619-0.65234,0.11865l-0.01855,0.01709V3.50842l-0.22412-0.11865L15.03574,3.35607z M15.85605,5.10803
	c0.16113-0.0166,0.27246-0.04199,0.33496-0.07617l0.01953-0.0166l0.01855,0.0166l0.22363,0.16943l0.05566,0.03369h-0.07422
	c-0.21191,0.02295-0.51611,0.05078-0.91406,0.08496v0.30469c0.09961,0,0.22998-0.0083,0.3916-0.02539
	c0.16211-0.01709,0.26758-0.04248,0.31738-0.07617l0.01855-0.01709l0.01855,0.01709l0.22363,0.16943l0.03711,0.05078h-0.05566
	c-0.1123,0.01123-0.28027,0.02539-0.50342,0.04199c-0.22363,0.01709-0.37305,0.02539-0.44775,0.02539v0.59277
	c-0.01221,0.04492-0.02148,0.11523-0.02783,0.21143c-0.00635,0.0957-0.01562,0.17188-0.02783,0.22852L15.4459,6.86047
	c-0.0127,0-0.02539,0-0.0376,0c-0.03711-0.02295-0.07764-0.0708-0.12109-0.14404s-0.07178-0.13281-0.08398-0.17773L15.18467,6.5216
	l0.01855-0.0166c0.06201-0.09082,0.08691-0.23145,0.07471-0.42334V4.91369c-0.0127-0.11279-0.0249-0.23145-0.03711-0.35547V4.54113
	V4.52404l0.03711-0.03369l0.03711-0.01709l0.01904,0.01709c0.04932,0.06787,0.09912,0.12451,0.14893,0.16943
	c0.32324,0,0.65918-0.02246,1.00684-0.06787c0.07422,0,0.14941-0.05615,0.22363-0.16943l0.01855-0.0166l0.01953,0.0166
	L16.97422,4.609l0.01953,0.0166l-0.01953,0.01709c-0.09961,0.11279-0.15527,0.17529-0.16797,0.18604l0.01953-0.0166v1.55713
	c0,0.18066-0.05664,0.3501-0.16797,0.5083l-0.01855,0.0166l-0.01855-0.0166c-0.16211-0.21484-0.35449-0.43506-0.57812-0.66064
	l-0.01953-0.0166l0.01953-0.01709l0.03711-0.06787l0.01855-0.03369l0.01855,0.01709l0.44727,0.35547
	c0.0127-0.03418,0.02148-0.08789,0.02832-0.16113s0.00879-0.12109,0.00879-0.14355V4.77795
	c-0.37207,0.03418-0.73291,0.05664-1.08105,0.06787v0.2876C15.58262,5.13342,15.69443,5.12512,15.85605,5.10803z"/>
<path class="st0" d="M23.31123,13.18029c0,0.05664,0,0.15771,0,0.30469c0,0.14648-0.0127,0.24805-0.03711,0.30469
	c-0.0127,0.01123-0.02539,0.0166-0.03711,0.0166c-0.0127,0-0.01855-0.00537-0.01855-0.0166
	c-0.03711-0.02295-0.0752-0.0708-0.1123-0.14404c-0.03711-0.07373-0.06836-0.13281-0.09277-0.17773V13.4508
	c0.06152-0.12402,0.09277-0.31543,0.09277-0.5752v-0.94824c-0.31055,0.5415-0.72656,0.99902-1.24951,1.37109l-0.01855,0.01709
	l-0.01855-0.03369l-0.03711-0.05078l-0.01953-0.01709l0.01953-0.01709c0.48486-0.40625,0.87646-0.89697,1.17432-1.47266
	c-0.11133,0.02295-0.24219,0.04834-0.3916,0.07617c-0.14844,0.02832-0.26074,0.05371-0.33496,0.07617v0.01709l-0.01855-0.01709
	l-0.26221-0.13525l-0.07422-0.03418h0.07422c0.39893-0.05615,0.77783-0.11816,1.13818-0.18604
	c-0.0127-0.19189-0.0498-0.34961-0.11133-0.47412V11.0299l0.03711-0.03369l0.01855-0.03369l0.01855,0.0166l0.31738,0.2373
	l0.01855,0.0166l-0.01855,0.01709c-0.03809,0.06787-0.05664,0.14697-0.05664,0.2373
	c0.19922-0.02246,0.34473-0.04541,0.43848-0.06787c0.09277-0.02246,0.1709-0.05078,0.2334-0.08447h0.01855h0.01855l0.2793,0.15234
	l0.0752,0.03369l-0.0752,0.01709c-0.36035,0.04492-0.68945,0.09033-0.98828,0.13525v0.30469
	c0.27344,0.10156,0.52246,0.20898,0.74609,0.32178v0.0166c-0.0127,0.13574-0.02539,0.25977-0.03711,0.37256l-0.01855,0.05078
	l-0.03711-0.03369c-0.19922-0.2373-0.41699-0.42334-0.65332-0.55859V13.18029z M22.09932,10.45471l-0.0376,0.0166v-0.03369v-0.05078
	l-0.01855-0.01709h0.03711c0.31104-0.08984,0.60986-0.18311,0.896-0.2793c0.28516-0.0957,0.53418-0.20557,0.74512-0.33008
	c0.1123-0.07861,0.17383-0.13525,0.18652-0.16943v-0.0166h0.01855h0.01855h0.01953l0.24219,0.27051l0.03711,0.05078h-0.05566
	c-0.16211,0.02295-0.33301,0.0708-0.5127,0.14404c-0.18066,0.07373-0.37012,0.13867-0.56934,0.19482
	c0.1123,0.12451,0.23047,0.27686,0.35449,0.45703l0.01855,0.01709l-0.01855,0.0166c-0.0498,0.11328-0.11816,0.21484-0.20508,0.30469
	l-0.03711,0.03418V11.0133c-0.0498-0.25977-0.13672-0.50781-0.26172-0.74512C22.6833,10.34728,22.39815,10.40978,22.09932,10.45471z
	 M22.24873,10.57287l0.01855-0.0166l0.01855-0.05078l0.01855-0.03418l0.01855,0.01709
	c0.16211,0.12451,0.31055,0.24854,0.44727,0.37256l0.01953,0.0166v0.01709c-0.0127,0.13525-0.04395,0.24854-0.09375,0.33838
	l-0.01855,0.05078l-0.01855-0.05078c-0.1123-0.20312-0.24219-0.42285-0.3916-0.66016H22.24873z M23.49776,11.13146l0.01855-0.0166
	c0.08691-0.1582,0.1709-0.31885,0.25195-0.48242s0.12695-0.33594,0.13965-0.5166v-0.0166h0.01855l0.05664-0.01709h0.01855
	l0.01855,0.01709l0.22363,0.32129l0.01855,0.01709l-0.01855,0.01709c-0.09961,0.03369-0.16211,0.08447-0.18652,0.15234
	c-0.13672,0.19189-0.29199,0.39502-0.46582,0.60938l-0.03809,0.03369l-0.01855-0.03369l-0.01855-0.06787L23.49776,11.13146z
	 M23.70284,13.78967l0.01855-0.01709c0.36035-0.21436,0.69629-0.46289,1.00684-0.74463
	c0.31055-0.28223,0.55957-0.57568,0.74609-0.88037c0.0752-0.11279,0.11816-0.22559,0.13086-0.33887v-0.0166h0.01855h0.05566
	l0.01855-0.01709l0.01855,0.01709l0.14941,0.40625l0.01855,0.0166l-0.01855,0.01709
	c-0.0625,0.02295-0.10547,0.04541-0.13086,0.06787c-0.24805,0.30469-0.52148,0.58398-0.82031,0.83789
	c-0.29785,0.25391-0.60938,0.46533-0.93164,0.63477c-0.0752,0.04492-0.14941,0.0791-0.22461,0.10156h-0.01855v-0.01709
	l-0.01855-0.03369L23.70284,13.78967z M24.1501,12.46887l0.03809-0.0166c0.24805-0.21436,0.48145-0.4458,0.69922-0.69434
	c0.2168-0.24805,0.3877-0.50195,0.5127-0.76172c0.01172-0.03369,0.02441-0.08447,0.03711-0.15234v-0.01709h0.01855h0.03711
	l0.01855-0.0166v0.0166l0.16797,0.44043l0.01855,0.03369H25.6794c-0.08691,0.03418-0.14941,0.07373-0.18652,0.11865
	c-0.34766,0.4292-0.75781,0.80127-1.23047,1.11719h-0.01855H24.2253l-0.05566-0.05078L24.1501,12.46887z M24.43037,11.21642
	l0.01855-0.01709c0.37305-0.40625,0.65234-0.84619,0.83887-1.32031c0.0127-0.03418,0.02539-0.09033,0.03711-0.16943V9.6925
	l0.05664-0.0166l0.01855-0.01709l0.01855,0.01709l0.20508,0.40625l0.01855,0.03369h-0.03711
	c-0.0625,0.03418-0.10547,0.06787-0.13086,0.10156c-0.13672,0.18066-0.2793,0.36426-0.42871,0.55029s-0.3291,0.3584-0.54102,0.51611
	v0.01709l-0.01855-0.03369l-0.03711-0.03418L24.43037,11.21642z"/>
</svg>
