<?xml version="1.0" encoding="utf-8"?>
<!-- Generator: Adobe Illustrator 25.0.0, SVG Export Plug-In . SVG Version: 6.00 Build 0)  -->
<svg version="1.1" id="图层_1" xmlns="http://www.w3.org/2000/svg" xmlns:xlink="http://www.w3.org/1999/xlink" x="0px" y="0px"
	 viewBox="0 0 16 16" style="enable-background:new 0 0 16 16;" xml:space="preserve">
<style type="text/css">
	.st0{fill:#5E5A62;}
	.st1{fill:#FDDF32;}
	.st2{fill:#FF6439;}
	.st3{fill:#FD9303;}
</style>
<path class="st0" d="M14.72226,1.9682c-0.06745-0.08618-0.18103-0.12188-0.28566-0.08978l-2.08577,0.63843l-0.49062-1.94942
	c-0.0261-0.10376-0.11215-0.18157-0.21801-0.19711c-0.1058-0.01533-0.21048,0.03427-0.26564,0.12585L8.70969,4.95054
	C8.47443,4.91873,8.23731,4.90255,7.99991,4.90212c-0.24068,0-0.47721,0.01746-0.7096,0.04842L4.62344,0.49617
	C4.54817,0.37081,4.38553,0.3302,4.26017,0.40547c-0.05995,0.036-0.10323,0.09425-0.12038,0.16204L3.64917,2.51694L1.5634,1.87851
	C1.42368,1.83574,1.27574,1.91434,1.23297,2.05406c-0.0219,0.07153-0.01249,0.14899,0.0259,0.2132l2.68557,4.49371
	c-0.81482,0.9412-1.30958,2.16673-1.30958,3.50638c0,2.95826,2.4067,5.36514,5.36497,5.36514
	c2.95835,0,5.36514-2.40688,5.36514-5.36514c0-1.33957-0.49468-2.56519-1.30958-3.50621l2.68557-4.49388
	C14.79721,2.17331,14.78978,2.05441,14.72226,1.9682z"/>
<path class="st1" d="M7.99991,15.01496c-2.61784,0-4.74761-2.12986-4.74761-4.74779s2.12978-4.7477,4.74761-4.7477
	c2.61801,0,4.74779,2.12978,4.74779,4.7477S10.61793,15.01496,7.99991,15.01496z"/>
<path class="st2" d="M8.01473,6.84228c-1.91273,0-3.4689,1.55617-3.4689,3.46899c0,1.91273,1.55617,3.46881,3.4689,3.46881
	s3.4689-1.55617,3.4689-3.46881C11.48363,8.39845,9.92746,6.84228,8.01473,6.84228z M8.01473,13.33912
	c-1.66967,0-3.02794-1.35817-3.02794-3.02785s1.35826-3.02802,3.02794-3.02802s3.02794,1.35835,3.02794,3.02802
	S9.6844,13.33912,8.01473,13.33912z M3.76047,3.1043c0.1399,0.0427,0.28792-0.0361,0.33062-0.17599
	c0.00125-0.0041,0.0024-0.00823,0.00345-0.01239l0.40278-1.60035l2.23825,3.7386C5.81713,5.27694,4.99076,5.73652,4.3242,6.36472
	L2.06566,2.58555L3.76047,3.1043z M11.67589,6.36463c-0.66656-0.62811-1.49293-1.08777-2.41138-1.31055l2.23825-3.7386
	l0.40278,1.60035c0.03567,0.1417,0.17947,0.22765,0.32117,0.19198c0.00433-0.00109,0.00864-0.00229,0.01291-0.0036l1.69481-0.51875
	L11.67589,6.36463z"/>
<g>
	<path class="st3" d="M6.8798,12.32344c0.21141,0.02003,0.4078-0.00668,0.58916-0.08011s0.27873-0.23366,0.29208-0.48068V9.13229
		C7.74991,8.90975,7.68037,8.75732,7.55241,8.67498C7.42445,8.59264,7.30262,8.5537,7.1869,8.55815H6.95991V8.41127
		c0.33158-0.07789,0.79-0.21586,1.37527-0.41392v3.7653c0.0089,0.22476,0.09458,0.3772,0.25703,0.45731
		s0.34827,0.11461,0.55745,0.10348v0.21363H6.8798V12.32344z"/>
</g>
</svg>
