<?xml version="1.0" standalone="no"?><!DOCTYPE svg PUBLIC "-//W3C//DTD SVG 1.1//EN" "http://www.w3.org/Graphics/SVG/1.1/DTD/svg11.dtd"><svg t="1763876062088" class="icon" viewBox="0 0 1024 1024" version="1.1" xmlns="http://www.w3.org/2000/svg" p-id="1976" xmlns:xlink="http://www.w3.org/1999/xlink" width="16" height="16"><path d="M869.91 367.9c39.61 0 71.72 32.11 71.72 71.72v340.65c0 39.61-32.11 71.72-71.72 71.72H829.8l-25.36 107.57-112.96-107.58H367.9c-39.61 0-71.72-32.11-71.72-71.72V439.61c0-39.61 32.11-71.72 71.72-71.72h502.01z" fill="#8664D7" p-id="1977"></path><path d="M543.12 520.22H820.2c7.65 0 13.85 6.1 13.85 13.61v27.23c0 7.52-6.2 13.61-13.85 13.61H543.12c-7.65 0-13.85-6.1-13.85-13.61v-27.23c-0.01-7.51 6.2-13.61 13.85-13.61zM612.39 618.57H820.2c7.65 0 13.85 6.11 13.85 13.65v27.3c0 7.54-6.2 13.65-13.85 13.65H612.39c-7.65 0-13.85-6.11-13.85-13.65v-27.3c-0.01-7.54 6.2-13.65 13.85-13.65z" fill="#FFFFFF" p-id="1978"></path><path d="M152.75 98.96c-39.61 0-71.72 32.11-71.72 71.72v251.01c0 39.61 32.11 71.72 71.72 71.72h40.79l24.68 89.65 109.79-89.65h308.83c39.61 0 71.72-32.11 71.72-71.72V170.68c0-39.61-32.11-71.72-71.72-71.72H152.75z" fill="#7690F1" p-id="1979"></path><path d="M201 182.55h296.19c8.18 0 14.81 5.82 14.81 12.99v25.99c0 7.18-6.63 12.99-14.81 12.99H201c-8.18 0-14.81-5.82-14.81-12.99v-25.99c0-7.17 6.63-12.99 14.81-12.99zM201 283.17h222.14c8.18 0 14.81 5.57 14.81 12.44v24.89c0 6.87-6.63 12.44-14.81 12.44H201c-8.18 0-14.81-5.57-14.81-12.44v-24.89c0-6.87 6.63-12.44 14.81-12.44z" fill="#FFFFFF" p-id="1980"></path></svg>