<?xml version="1.0" standalone="no"?><!DOCTYPE svg PUBLIC "-//W3C//DTD SVG 1.1//EN" "http://www.w3.org/Graphics/SVG/1.1/DTD/svg11.dtd"><svg t="1763876078205" class="icon" viewBox="0 0 1024 1024" version="1.1" xmlns="http://www.w3.org/2000/svg" p-id="2503" xmlns:xlink="http://www.w3.org/1999/xlink" width="16" height="16"><path d="M720.79 275.17h-40c0-93.42-76-169.42-169.43-169.42s-169.42 76-169.42 169.42h-40c0-115.48 93.95-209.42 209.42-209.42s209.43 93.94 209.43 209.42z" fill="#FFD875" p-id="2504"></path><path d="M286.8 199.4h442.47c58.31 0 107.16 44.12 113.07 102.13l54.06 530.39c6.36 62.45-39.1 118.23-101.54 124.59-3.83 0.39-7.68 0.59-11.52 0.59h-545.2c-62.77 0-113.65-50.89-113.65-113.65 0-3.47 0.16-6.93 0.48-10.38l48.66-530.39c5.35-58.51 54.42-103.28 113.17-103.28z" fill="#FFAE5A" p-id="2505"></path><path d="M511.36 720.32l-54.53 28.67c-18.52 9.74-41.43 2.62-51.16-15.9a37.843 37.843 0 0 1-3.81-24.03l10.41-60.72-44.12-43c-14.98-14.6-15.29-38.59-0.68-53.57a37.904 37.904 0 0 1 21.68-11.05l60.97-8.86 27.26-55.24c9.26-18.76 31.98-26.47 50.74-17.21a37.892 37.892 0 0 1 17.21 17.21l27.26 55.24 60.97 8.86c20.71 3.01 35.05 22.23 32.04 42.94a37.843 37.843 0 0 1-11.05 21.68l-44.12 43 10.41 60.72c3.54 20.62-10.31 40.21-30.94 43.74-8.21 1.41-16.66 0.07-24.03-3.81l-54.51-28.67z" fill="#FFFFFF" p-id="2506"></path></svg>