<?xml version="1.0" standalone="no"?><!DOCTYPE svg PUBLIC "-//W3C//DTD SVG 1.1//EN" "http://www.w3.org/Graphics/SVG/1.1/DTD/svg11.dtd"><svg t="1763876066956" class="icon" viewBox="0 0 1024 1024" version="1.1" xmlns="http://www.w3.org/2000/svg" p-id="2152" xmlns:xlink="http://www.w3.org/1999/xlink" width="16" height="16"><path d="M129.509 512.64l184.72-134.21c31.39-22.81 75.32-15.85 98.13 15.54l206.47 284.18c22.81 31.39 15.85 75.32-15.54 98.13l-198.93 144.53c-23.54 17.1-56.49 11.89-73.6-11.66l-216.79-298.38c-22.81-31.39-15.85-75.33 15.54-98.13z" fill="#4363FF" p-id="2153"></path><path d="M256.299 269.61l352.18-74.86c37.95-8.07 75.26 16.16 83.32 54.11l109.55 515.39c8.07 37.95-16.16 75.26-54.11 83.32l-369.36 78.51c-28.46 6.05-56.44-12.12-62.49-40.58l-113.2-532.57c-8.07-37.95 16.16-75.25 54.11-83.32z" fill="#7057EA" p-id="2154"></path><path d="M374.439 84.38h491.77c38.8 0 70.25 31.45 70.25 70.25v702.54c0 38.8-31.45 70.25-70.25 70.25h-491.77c-38.8 0-70.25-31.45-70.25-70.25V154.64c-0.01-38.8 31.45-70.26 70.25-70.26z" fill="#A08BEC" p-id="2155"></path><path d="M427.129 277.58h316.14c9.7 0 17.56 7.86 17.56 17.56v17.56c0 9.7-7.86 17.56-17.56 17.56h-316.14c-9.7 0-17.56-7.86-17.56-17.56v-17.56c-0.01-9.7 7.86-17.56 17.56-17.56zM427.129 382.96h193.2c9.7 0 17.56 7.86 17.56 17.56v17.56c0 9.7-7.86 17.56-17.56 17.56h-193.2c-9.7 0-17.56-7.86-17.56-17.56v-17.56c-0.01-9.7 7.86-17.56 17.56-17.56z" fill="#FFFFFF" p-id="2156"></path></svg>