<?xml version="1.0" encoding="utf-8"?>
<!-- Generator: Adobe Illustrator 25.0.0, SVG Export Plug-In . SVG Version: 6.00 Build 0)  -->
<svg version="1.1" id="图层_1" xmlns="http://www.w3.org/2000/svg" xmlns:xlink="http://www.w3.org/1999/xlink" x="0px" y="0px"
	 viewBox="0 0 1024 1024" style="enable-background:new 0 0 1024 1024;" xml:space="preserve">
<style type="text/css">
	.st0{fill-rule:evenodd;clip-rule:evenodd;fill:#FFFFFF;stroke:#000000;stroke-width:3.26115;}
	.st1{fill-rule:evenodd;clip-rule:evenodd;fill:#FFFFFF;stroke:#FF2B2B;stroke-width:3.26115;}
	.st2{fill-rule:evenodd;clip-rule:evenodd;fill:#DDDDDD;}
	.st3{fill-rule:evenodd;clip-rule:evenodd;fill:#32323B;stroke:#000000;stroke-width:3.26115;}
	.st4{fill-rule:evenodd;clip-rule:evenodd;fill:#999999;stroke:#000000;stroke-width:3.26115;}
	.st5{fill-rule:evenodd;clip-rule:evenodd;fill:#FFFFFF;}
	.st6{filter:url(#Adobe_OpacityMaskFilter);}
	.st7{mask:url(#mask-2_1_);fill-rule:evenodd;clip-rule:evenodd;fill:#DDDDDD;}
	.st8{fill-rule:evenodd;clip-rule:evenodd;fill:#F94E4E;stroke:#FF0000;stroke-width:3.26115;}
	.st9{fill:none;stroke:#FF2B2B;stroke-width:3.26115;stroke-linecap:round;}
	.st10{fill-rule:evenodd;clip-rule:evenodd;fill:#FFFFFF;stroke:#3952CB;stroke-width:3.26115;}
	.st11{filter:url(#Adobe_OpacityMaskFilter_1_);}
	.st12{mask:url(#mask-2_2_);fill-rule:evenodd;clip-rule:evenodd;fill:#DDDDDD;}
	.st13{fill-rule:evenodd;clip-rule:evenodd;fill:#5478EB;stroke:#3451DE;stroke-width:3.26115;}
	.st14{fill:none;stroke:#3451DE;stroke-width:3.26115;stroke-linecap:round;}
</style>
<path id="形状结合" class="st0" d="M754.94434,200.56047v569.07001c0,15.75946-6.38782,30.02698-16.71545,40.35461
	c-10.32764,10.3277-24.59521,16.71545-40.35461,16.71545H361.93085c-15.75946,0-30.02698-6.38776-40.35461-16.71545
	c-10.32764-10.32764-16.71545-24.59515-16.71545-40.35461V257.63052c0-15.75946,6.38782-30.02698,16.71545-40.35461
	c10.32764-10.32765,24.59515-16.71544,40.35461-16.71544H754.94434z"/>
<ellipse id="椭圆形" class="st1" cx="198.8631" cy="665.27386" rx="14.67679" ry="14.67517"/>
<path id="形状结合备份" class="st2" d="M397.81195,436.99359h19.57077c5.40326,0,9.78345,4.38019,9.78345,9.78345v19.56686
	c0,5.40326-4.38019,9.78345-9.78345,9.78345h-19.57077c-5.40326,0-9.78345-4.38019-9.78345-9.78345v-19.56686
	C388.0285,441.37378,392.40869,436.99359,397.81195,436.99359z M463.04041,436.99359h179.38489
	c10.80652,0,19.56689,8.76038,19.56689,19.56689c0,10.80649-8.76038,19.56686-19.56689,19.56686H463.04041
	c-10.80649,0-19.56686-8.76038-19.56686-19.56686C443.47354,445.75397,452.23392,436.99359,463.04041,436.99359z"/>
<path id="形状结合_1_" class="st3" d="M750.04895,200.56047c7.65723,0,14.5885,3.10237,19.60547,8.11839
	c5.01733,5.01631,8.12024,11.94647,8.12024,19.60135l-0.00049,510.3692l37.50977,0.00018
	c6.75415,0,12.86877,2.73767,17.29492,7.16376c4.42615,4.42615,7.1637,10.54083,7.1637,17.29486v39.13373
	c0,6.75409-2.73755,12.86871-7.1637,17.29486s-10.54077,7.16376-17.29492,7.16376H681.61548
	c8.76965-3.01385,16.62585-7.99219,23.04321-14.40942c10.91772-10.91785,17.67053-26.00061,17.67053-42.66064l-0.00061-541.35339
	c0.12769-7.75645,3.25281-14.67465,8.24097-19.65991C735.57532,203.61432,742.45557,200.56047,750.04895,200.56047z"/>
<path id="矩形" class="st4" d="M865.83435,689.73242v92.93811c0,12.15857-4.92822,23.16608-12.89612,31.13391
	c-7.9679,7.9679-18.97534,12.89612-31.13391,12.89612s-23.16602-4.92822-31.13391-12.89612
	c-7.9679-7.96783-12.89612-18.97534-12.89612-31.13391v-92.93811H865.83435z"/>
<path id="矩形_1_" class="st2" d="M365.19559,710.92987h319.62692l0,0v52.17834c0,34.22052-27.74127,61.96179-61.96179,61.96179
	H365.19559c-14.40866,0-26.08917-11.68054-26.08917-26.08917v-61.96179
	C339.10641,722.61041,350.78693,710.92987,365.19559,710.92987z"/>
<path id="蒙版" class="st0" d="M507.07242,686.47131v44.02545c0,27.46649,11.13303,52.3327,29.1326,70.33234
	c12.2569,12.2569,27.69781,21.32977,44.97571,25.87146H309.74664c-17.56055,0-33.45862-7.1178-44.96658-18.62573
	c-11.50795-11.508-18.62576-27.40607-18.62576-44.96661v-76.6369H507.07242z"/>
<g id="编组" transform="translate(91.2502, 489.172)">
	<g id="蒙版_1_">
		<path id="path-1_1_" class="st5" d="M414.19101,198.9299l0.00031,42.3949c0,43.23099,27.13528,80.12421,65.30267,94.57648
			l-260.99719-0.00323c-34.22055,0-61.96179-27.74124-61.96179-61.96176V198.9299H414.19101z"/>
	</g>
	<defs>
		
			<filter id="Adobe_OpacityMaskFilter" filterUnits="userSpaceOnUse" x="159.79648" y="300.02545" width="348.97754" height="42.39491">
			<feColorMatrix  type="matrix" values="1 0 0 0 0  0 1 0 0 0  0 0 1 0 0  0 0 0 1 0"/>
		</filter>
	</defs>
	<mask maskUnits="userSpaceOnUse" x="159.79648" y="300.02545" width="348.97754" height="42.39491" id="mask-2_1_">
		<g class="st6">
			<path id="path-1_2_" class="st5" d="M414.19101,198.9299l0.00031,42.3949c0,43.23099,27.13528,80.12421,65.30267,94.57648
				l-260.99719-0.00323c-34.22055,0-61.96179-27.74124-61.96179-61.96176V198.9299H414.19101z"/>
		</g>
	</mask>
	<rect id="矩形_2_" x="159.79648" y="300.02545" class="st7" width="348.97754" height="42.39491"/>
</g>
<path id="形状结合备份-2" class="st2" d="M397.81195,531.56683h19.57077c5.40326,0,9.78345,4.38019,9.78345,9.78345v19.56689
	c0,5.4032-4.38019,9.78339-9.78345,9.78339h-19.57077c-5.40326,0-9.78345-4.38019-9.78345-9.78339v-19.56689
	C388.0285,535.94702,392.40869,531.56683,397.81195,531.56683z M463.04041,531.56683h120.67841
	c10.80646,0,19.56683,8.76038,19.56683,19.56689c0,10.80646-8.76038,19.56683-19.56683,19.56683H463.04041
	c-10.80649,0-19.56686-8.76038-19.56686-19.56683C443.47354,540.32721,452.23392,531.56683,463.04041,531.56683z"/>
<path id="椭圆形_1_" class="st8" d="M327.69128,428.84073c38.78024,0,73.8988,12.26556,99.31601,32.12988
	c25.25345,19.73636,40.92743,46.98566,40.92743,77.1185c0,13.24255-3.02744,25.93219-8.56711,37.6709
	c-0.89334,1.89294-0.79532,4.47919,0.69031,7.81055c1.25861,2.8222,3.51971,6.24634,6.80951,10.25726
	c5.815,7.08972,14.89423,16.09521,27.23599,27.008c-44.70004-3.69073-69.76556-3.38184-75.47919,0.41382
	c-24.50504,16.27911-56.25418,26.08789-90.93295,26.08789c-38.78027,0-73.89886-12.26556-99.31604-32.12988
	c-25.25345-19.73633-40.92746-46.98566-40.92746-77.11853c0-30.13284,15.67401-57.38214,40.92746-77.1185
	C253.79242,441.10629,288.91101,428.84073,327.69128,428.84073z"/>
<ellipse id="椭圆形_2_" class="st5" cx="265.7233" cy="539.71967" rx="21.19956" ry="21.19745"/>
<ellipse id="椭圆形备份" class="st5" cx="327.69128" cy="539.71967" rx="21.19957" ry="21.19745"/>
<ellipse id="椭圆形备份-2" class="st5" cx="389.65924" cy="539.71967" rx="21.19957" ry="21.19745"/>
<path id="形状结合_2_" class="st2" d="M397.81195,342.42035h19.57077c5.40326,0,9.78345,4.38019,9.78345,9.78342v19.56689
	c0,5.40323-4.38019,9.78345-9.78345,9.78345h-19.57077c-5.40326,0-9.78345-4.38022-9.78345-9.78345v-19.56689
	C388.0285,346.80054,392.40869,342.42035,397.81195,342.42035z M463.04041,342.42035h179.38489
	c10.80652,0,19.56689,8.76038,19.56689,19.56686s-8.76038,19.56689-19.56689,19.56689H463.04041
	c-10.80649,0-19.56686-8.76041-19.56686-19.56689S452.23392,342.42035,463.04041,342.42035z"/>
<line id="路径-8" class="st9" x1="177.26021" y1="456.56049" x2="156.535" y2="471.56033"/>
<line id="路径-8备份" class="st9" x1="187.04462" y1="466.3439" x2="166.31943" y2="481.34378"/>
<line id="路径-8备份-2" class="st9" x1="518.55847" y1="593.52863" x2="525.01038" y2="613.99866"/>
</svg>
