<?xml version="1.0" standalone="no"?><!DOCTYPE svg PUBLIC "-//W3C//DTD SVG 1.1//EN" "http://www.w3.org/Graphics/SVG/1.1/DTD/svg11.dtd"><svg t="1763876044623" class="icon" viewBox="0 0 1024 1024" version="1.1" xmlns="http://www.w3.org/2000/svg" p-id="1448" xmlns:xlink="http://www.w3.org/1999/xlink" width="16" height="16"><path d="M694.93 216.27h-40V142.3c0-19.23-11.63-35.48-25.39-35.48H387.45c-13.76 0-25.39 16.25-25.39 35.48v73.97h-40V142.3c0-19.42 6.33-37.85 17.82-51.89 12.26-14.99 29.6-23.58 47.58-23.58h242.08c17.97 0 35.31 8.6 47.58 23.58 11.49 14.04 17.82 32.47 17.82 51.89v73.97z" fill="#57BE76" p-id="1449"></path><path d="M194.12 179.28h628.75c40.85 0 73.97 33.12 73.97 73.97v332.87c0 40.85-33.12 73.97-73.97 73.97H194.12c-40.85 0-73.97-33.12-73.97-73.97V253.25c0-40.85 33.12-73.97 73.97-73.97z" fill="#79DFB7" p-id="1450"></path><path d="M231.11 512.15h554.78c40.85 0 73.97 33.12 73.97 73.97V882c0 40.85-33.12 73.97-73.97 73.97H231.11c-40.85 0-73.97-33.12-73.97-73.97V586.12c0-40.86 33.11-73.97 73.97-73.97z" fill="#57BE76" p-id="1451"></path><path d="M508.5 660.09m-92.46 0a92.46 92.46 0 1 0 184.92 0 92.46 92.46 0 1 0-184.92 0Z" fill="#FFFFFF" p-id="1452"></path><path d="M231.11 586.12h55.48v166.43h-55.48zM730.41 586.12h55.48v166.43h-55.48z" fill="#60D784" p-id="1453"></path></svg>