<?xml version="1.0" standalone="no"?><!DOCTYPE svg PUBLIC "-//W3C//DTD SVG 1.1//EN" "http://www.w3.org/Graphics/SVG/1.1/DTD/svg11.dtd"><svg height="1024" node-id="1" sillyvg="true" template-height="1024" template-width="1024" version="1.1" viewBox="0 0 1024 1024" width="1024" xmlns="http://www.w3.org/2000/svg" xmlns:xlink="http://www.w3.org/1999/xlink"><defs node-id="34"><mask height="176.30798" id="mask-2" maskUnits="userSpaceOnUse" node-id="21" width="117.405975" x="327.18195" y="347.56592"><path d="M 333.70 313.28 L 438.07 313.28 C 445.27 313.28 451.11 319.12 451.11 326.33 L 451.11 447.16 C 451.11 454.37 445.27 460.21 438.07 460.21 L 333.70 460.21 C 326.50 460.21 320.66 454.37 320.66 447.16 L 320.66 326.33 C 320.66 319.12 326.50 313.28 333.70 313.28 Z" fill="#ffffff" fill-rule="evenodd" node-id="39" stroke="none" target-height="146.92334" target-width="130.45108" target-x="320.6594" target-y="313.2838"></path></mask></defs><g node-id="69"><g node-id="70"><path d="M 309.91 278.51 L 779.28 404.28 C 793.20 408.00 801.46 422.31 797.73 436.23 L 681.94 868.35 C 678.22 882.26 663.91 890.52 649.99 886.79 L 180.62 761.02 C 166.70 757.30 158.44 742.99 162.17 729.07 L 277.96 296.95 C 281.68 283.04 295.99 274.78 309.91 278.51 Z" fill="#2f3137" fill-rule="evenodd" group-id="1,2" id="矩形备份-6" node-id="9" stroke="none" target-height="615.7449" target-width="643.019" target-x="158.44061" target-y="274.77792"></path><path d="M 288.85 237.37 L 755.08 362.30 C 769.00 366.03 777.26 380.33 773.53 394.25 L 658.59 823.22 C 654.86 837.13 640.55 845.39 626.63 841.66 L 160.41 716.74 C 146.49 713.01 138.23 698.71 141.96 684.79 L 256.90 255.82 C 260.63 241.90 274.94 233.64 288.85 237.37 Z" fill="#efefef" fill-rule="evenodd" group-id="1,2" id="矩形" node-id="10" stroke="#000000" stroke-linecap="butt" stroke-width="3.2611463" target-height="611.75085" target-width="639.02496" target-x="138.2315" target-y="233.64331"></path></g><path d="M 297.83 244.72 L 783.76 244.72 C 798.17 244.72 809.85 256.40 809.85 270.81 L 809.85 682.26 C 809.85 696.66 798.17 708.34 783.76 708.34 L 297.83 708.34 C 283.42 708.34 271.74 696.66 271.74 682.26 L 271.74 270.81 C 271.74 256.40 283.42 244.72 297.83 244.72 Z" fill="#2f3137" fill-rule="evenodd" group-id="1" id="矩形备份-6" node-id="11" stroke="none" target-height="463.62476" target-width="538.1107" target-x="271.74023" target-y="244.7196"></path><path d="M 578.30 130.45 C 581.90 130.45 584.82 133.37 584.82 136.97 L 584.82 176.15 L 633.74 176.16 C 637.34 176.16 640.26 179.08 640.26 182.68 L 640.26 241.46 C 640.26 245.06 637.34 247.98 633.74 247.98 L 434.80 247.98 C 431.20 247.98 428.28 245.06 428.28 241.46 L 428.28 182.68 C 428.28 179.08 431.20 176.16 434.80 176.16 L 483.72 176.15 L 483.72 136.97 C 483.72 133.37 486.64 130.45 490.25 130.45 L 578.30 130.45 Z" fill="#32323d" fill-rule="evenodd" group-id="1" id="形状结合备份-3" node-id="12" stroke="none" target-height="117.538666" target-width="211.98303" target-x="428.28156" target-y="130.4459"></path><path d="M 266.85 210.44 L 749.52 210.44 C 763.93 210.44 775.61 222.12 775.61 236.52 L 775.61 680.62 C 775.61 695.03 763.93 706.71 749.52 706.71 L 266.85 706.71 C 252.44 706.71 240.76 695.03 240.76 680.62 L 240.76 236.52 C 240.76 222.12 252.44 210.44 266.85 210.44 Z" fill="#fffffd" fill-rule="evenodd" group-id="1" id="矩形" node-id="13" stroke="#000000" stroke-linecap="butt" stroke-width="3.2611465" target-height="496.27817" target-width="534.8496" target-x="240.75804" target-y="210.43558"></path><path d="M 265.22 212.07 L 751.15 212.07 C 763.76 212.07 773.98 222.29 773.98 234.90 L 773.98 300.22 L 773.98 300.22 L 242.39 300.22 L 242.39 234.90 C 242.39 222.29 252.61 212.07 265.22 212.07 Z" fill="#dddddd" fill-rule="evenodd" group-id="1" id="矩形" node-id="14" stroke="none" target-height="88.15399" target-width="531.5882" target-x="242.38875" target-y="212.06998"></path><path d="M 561.99 130.45 C 565.60 130.45 568.52 133.37 568.52 136.97 L 568.52 176.15 L 617.44 176.16 C 621.04 176.16 623.96 179.08 623.96 182.68 L 623.96 241.46 C 623.96 245.06 621.04 247.98 617.44 247.98 L 418.50 247.98 C 414.90 247.98 411.98 245.06 411.98 241.46 L 411.98 182.68 C 411.98 179.08 414.90 176.16 418.50 176.16 L 467.42 176.15 L 467.42 136.97 C 467.42 133.37 470.34 130.45 473.94 130.45 L 561.99 130.45 Z" fill="#999999" fill-rule="evenodd" group-id="1" id="形状结合" node-id="15" stroke="none" target-height="117.538666" target-width="211.98303" target-x="411.97516" target-y="130.4459"></path><path d="M 532.64 167.99 C 532.64 176.11 526.07 182.69 517.97 182.69 C 509.86 182.69 503.29 176.11 503.29 167.99 C 503.29 159.88 509.86 153.30 517.97 153.30 C 526.07 153.30 532.64 159.88 532.64 167.99 Z" fill="#ffffff" fill-rule="evenodd" group-id="1" id="椭圆形" node-id="16" stroke="none" target-height="29.384674" target-width="29.351532" target-x="503.29092" target-y="153.30064"></path><g node-id="71"><path d="M 842.46 672.43 C 842.46 742.76 785.52 799.77 715.27 799.77 C 645.03 799.77 588.08 742.76 588.08 672.43 C 588.08 602.10 645.03 545.09 715.27 545.09 C 785.52 545.09 842.46 602.10 842.46 672.43 Z" fill="#5478eb" fill-rule="evenodd" group-id="1,3" id="椭圆形" node-id="18" stroke="#3451de" stroke-linecap="butt" stroke-width="13.044586" target-height="254.68237" target-width="254.38019" target-x="588.0839" target-y="545.0885"></path><path d="M 715.27 607.13 C 718.88 607.13 721.80 610.05 721.80 613.65 L 721.80 665.90 L 773.98 665.90 C 777.58 665.90 780.50 668.82 780.50 672.42 L 780.50 672.44 C 780.50 676.04 777.58 678.96 773.98 678.96 L 721.80 678.96 L 721.80 731.21 C 721.80 734.73 719.00 737.60 715.51 737.72 L 715.27 737.73 C 711.67 737.73 708.75 734.81 708.75 731.21 L 708.75 678.96 L 656.57 678.96 C 652.97 678.96 650.05 676.04 650.05 672.44 L 650.05 672.42 C 650.05 668.82 652.97 665.90 656.57 665.90 L 708.75 665.90 L 708.75 613.65 C 708.75 610.13 711.55 607.26 715.04 607.13 L 715.27 607.13 Z" fill="#ffffff" fill-rule="evenodd" group-id="1,3" id="形状结合" node-id="19" stroke="none" target-height="130.59851" target-width="130.45111" target-x="650.04846" target-y="607.13043"></path></g><g node-id="72"><g node-id="73"><path d="M 333.70 313.28 L 438.07 313.28 C 445.27 313.28 451.11 319.12 451.11 326.33 L 451.11 447.16 C 451.11 454.37 445.27 460.21 438.07 460.21 L 333.70 460.21 C 326.50 460.21 320.66 454.37 320.66 447.16 L 320.66 326.33 C 320.66 319.12 326.50 313.28 333.70 313.28 Z" fill="#d8d8d8" fill-rule="evenodd" group-id="1,4,5" node-id="62" stroke="none" target-height="146.92334" target-width="130.45108" target-x="320.6594" target-y="313.2838"></path></g><path d="M 385.88 362.26 C 400.29 362.26 411.98 373.95 411.98 388.38 C 411.98 399.10 405.52 408.32 396.28 412.34 C 418.30 417.11 434.80 436.70 434.80 460.15 L 434.80 460.26 C 434.80 487.28 412.90 509.18 385.89 509.18 C 358.87 509.18 336.97 487.28 336.97 460.26 L 336.97 460.15 C 336.97 436.70 353.46 417.11 375.49 412.34 C 366.25 408.32 359.79 399.10 359.79 388.38 C 359.79 373.95 371.48 362.26 385.88 362.26 Z" fill="#32323d" fill-rule="evenodd" group-id="1,4,6" node-id="67" stroke="none" target-height="146.92331" target-width="97.83832" target-x="336.9658" target-y="362.25827"></path></g><path d="M 519.62 421.03 L 676.12 421.03 C 681.31 421.03 686.29 423.09 689.97 426.77 C 693.64 430.44 695.71 435.42 695.71 440.62 L 695.71 440.62 C 695.71 445.81 693.64 450.80 689.97 454.47 C 686.29 458.14 681.31 460.21 676.12 460.21 L 519.62 460.21 C 514.42 460.21 509.44 458.14 505.77 454.47 C 502.09 450.80 500.03 445.81 500.03 440.62 L 500.03 440.62 C 500.03 435.42 502.09 430.44 505.77 426.77 C 509.44 423.09 514.42 421.03 519.62 421.03 Z" fill="#dcdedd" fill-rule="evenodd" group-id="1" id="矩形" node-id="25" stroke="none" target-height="39.179565" target-width="195.67667" target-x="500.02963" target-y="421.0276"></path><path d="M 340.25 499.39 L 676.12 499.39 C 681.31 499.39 686.29 501.45 689.97 505.12 C 693.64 508.80 695.71 513.78 695.71 518.98 L 695.71 518.98 C 695.71 524.17 693.64 529.15 689.97 532.83 C 686.29 536.50 681.31 538.57 676.12 538.57 L 340.25 538.57 C 335.05 538.57 330.07 536.50 326.40 532.83 C 322.72 529.15 320.66 524.17 320.66 518.98 L 320.66 518.98 C 320.66 513.78 322.72 508.80 326.40 505.12 C 330.07 501.45 335.05 499.39 340.25 499.39 Z" fill="#dcdedd" fill-rule="evenodd" group-id="1" id="矩形备份-7" node-id="26" stroke="none" target-height="39.179565" target-width="375.0469" target-x="320.6594" target-y="499.38672"></path><path d="M 340.25 577.75 L 535.88 577.75 C 541.08 577.75 546.06 579.81 549.73 583.48 C 553.41 587.16 555.47 592.14 555.47 597.34 L 555.47 597.34 C 555.47 602.53 553.41 607.51 549.73 611.19 C 546.06 614.86 541.08 616.93 535.88 616.93 L 340.25 616.93 C 335.05 616.93 330.07 614.86 326.40 611.19 C 322.72 607.51 320.66 602.53 320.66 597.34 L 320.66 597.34 C 320.66 592.14 322.72 587.16 326.40 583.48 C 330.07 579.81 335.05 577.75 340.25 577.75 Z" fill="#dcdedd" fill-rule="evenodd" group-id="1" id="矩形备份-8" node-id="27" stroke="none" target-height="39.179504" target-width="234.81198" target-x="320.6594" target-y="577.74585"></path><path d="M 852.25 479.80 C 852.25 485.21 847.87 489.59 842.46 489.59 C 837.06 489.59 832.68 485.21 832.68 479.80 C 832.68 474.39 837.06 470.00 842.46 470.00 C 847.87 470.00 852.25 474.39 852.25 479.80 Z" fill="#ffffff" fill-rule="evenodd" group-id="1" id="椭圆形" node-id="28" stroke="none" target-height="19.589844" target-width="19.567566" target-x="832.67993" target-y="470.002"></path><path d="M 842.46 470.00 C 847.87 470.00 852.25 474.39 852.25 479.80 C 852.25 485.21 847.87 489.59 842.46 489.59 C 837.06 489.59 832.68 485.21 832.68 479.80 C 832.68 474.39 837.06 470.00 842.46 470.00 Z M 842.46 473.27 C 838.86 473.27 835.94 476.19 835.94 479.80 C 835.94 483.40 838.86 486.33 842.46 486.33 C 846.07 486.33 848.99 483.40 848.99 479.80 C 848.99 476.19 846.07 473.27 842.46 473.27 Z" fill="#3451de" fill-rule="nonzero" group-id="1" id="椭圆形" node-id="29" stroke="none" target-height="19.589844" target-width="19.567566" target-x="832.67993" target-y="470.002"></path><path d="M 532.35 743.33 C 533.12 742.87 534.12 743.12 534.58 743.89 L 544.74 760.74 C 545.20 761.52 544.95 762.52 544.18 762.99 C 543.41 763.45 542.41 763.20 541.94 762.43 L 531.79 745.58 C 531.33 744.80 531.58 743.80 532.35 743.33 Z" fill="#3451de" fill-rule="nonzero" group-id="1" id="路径-19" node-id="30" stroke="none" target-height="20.582214" target-width="13.875305" target-x="531.3269" target-y="742.8685"></path><path d="M 546.23 733.30 C 547.13 733.30 547.86 734.04 547.86 734.94 L 547.86 749.97 C 547.86 750.87 547.13 751.60 546.23 751.60 C 545.33 751.60 544.60 750.87 544.60 749.97 L 544.60 734.94 C 544.60 734.04 545.33 733.30 546.23 733.30 Z" fill="#3451de" fill-rule="nonzero" group-id="1" id="路径-19备份" node-id="31" stroke="none" target-height="18.299011" target-width="3.2612305" target-x="544.60284" target-y="733.30475"></path><path d="M 897.09 547.94 C 897.58 547.19 898.59 546.97 899.34 547.47 C 900.10 547.96 900.31 548.97 899.82 549.73 L 889.72 565.16 C 889.23 565.91 888.22 566.12 887.47 565.63 C 886.71 565.14 886.50 564.12 887.00 563.37 L 897.09 547.94 Z" fill="#3451de" fill-rule="nonzero" group-id="1" id="路径-19备份-2" node-id="32" stroke="none" target-height="19.14978" target-width="13.806946" target-x="886.50195" target-y="546.97473"></path></g></svg>