<?xml version="1.0" standalone="no"?><!DOCTYPE svg PUBLIC "-//W3C//DTD SVG 1.1//EN" "http://www.w3.org/Graphics/SVG/1.1/DTD/svg11.dtd"><svg t="1763876073321" class="icon" viewBox="0 0 1024 1024" version="1.1" xmlns="http://www.w3.org/2000/svg" p-id="2328" xmlns:xlink="http://www.w3.org/1999/xlink" width="16" height="16"><path d="M278.78 162.72h475.11c62.97 0 114.03 51.05 114.03 114.03v456.1c0 62.97-51.05 114.03-114.03 114.03H278.78c-62.97 0-114.03-51.05-114.03-114.03v-456.1c0-62.98 51.05-114.03 114.03-114.03z" fill="#65CA87" p-id="2329"></path><path d="M246.55 171.27L588.63 70.48c60.41-17.8 123.81 16.74 141.6 77.15a114.14 114.14 0 0 1 4.65 32.23v665.67c0 62.97-51.05 114.03-114.03 114.03-11.93 0-23.79-1.87-35.15-5.55L243.63 843.17c-47.03-15.24-78.88-59.04-78.88-108.47V280.65c0-50.57 33.3-95.09 81.8-109.38z" fill="#8AE1C7" p-id="2330"></path><path d="M620.85 504.8m-57.01 0a57.01 57.01 0 1 0 114.02 0 57.01 57.01 0 1 0-114.02 0Z" fill="#FFFFFF" p-id="2331"></path></svg>